<svg width="50" height="50" fill="none" xmlns="http://www.w3.org/2000/svg"><path d="M47.788 16.008a1.014 1.014 0 00-.804-.384H44.09V12.84c0-.645-.518-1.166-1.16-1.166H27.787c-.178 0-.437-.165-.505-.343l-.573-1.398C26.49 9.398 25.904 9 25.33 9h-7.777c-.56 0-1.16.384-1.392.905l-.736 1.632a.678.678 0 01-.533.343h-1.637c-.641 0-1.16.52-1.16 1.165v4.526c.314-.041.628-.069.955-.082v-4.444a.21.21 0 01.205-.205h1.637c.56 0 1.16-.384 1.406-.905l.736-1.632a.678.678 0 01.532-.343h7.777c.178 0 .437.164.505.343l.573 1.398c.219.535.805.933 1.378.933h15.145a.21.21 0 01.205.206v20.775a.21.21 0 01-.205.206H23.243c-.177.33-.368.645-.573.96h20.261c.642 0 1.16-.521 1.16-1.166v-.04l3.875-16.69a.994.994 0 00-.178-.878zm-.75.658l-2.947 12.698v-12.78h2.893c.04 0 .054.013.068.013.013 0 0 .028-.014.069z" fill="#FFC72B"/><path d="M13.515 40.157C7.171 40.157 2 34.959 2 28.583c0-6.377 5.171-11.574 11.515-11.574 6.345 0 11.516 5.197 11.516 11.574 0 6.376-5.158 11.574-11.516 11.574zm0-22.202c-5.826 0-10.56 4.772-10.56 10.628 0 5.855 4.734 10.614 10.56 10.614 5.826 0 10.56-4.759 10.56-10.614 0-5.856-4.734-10.628-10.56-10.628z" fill="#FFC72B"/><path d="M17.84 25.922h-.695v-2.084c0-1.564-1.556-3.319-3.616-3.319-2.17 0-3.493 1.948-3.493 3.346v2.057h-.832c-.641 0-1.16.521-1.16 1.166v7.61c0 .645.519 1.166 1.16 1.166h8.636c.642 0 1.16-.52 1.16-1.165v-7.611a1.17 1.17 0 00-1.16-1.166zm-6.862-2.057c0-.946 1.01-2.386 2.537-2.386 1.624 0 2.66 1.399 2.66 2.359v2.084h-5.197v-2.057zm7.067 10.848a.21.21 0 01-.205.205H9.204a.21.21 0 01-.205-.206v-7.61a.21.21 0 01.205-.206h8.636a.21.21 0 01.205.206v7.61z" fill="#FFC72B"/><path d="M13.584 28.253a1.754 1.754 0 00-.478 3.443v2.125h.955V31.71a1.751 1.751 0 001.269-1.686c0-.974-.778-1.77-1.746-1.77zm0 2.565a.794.794 0 01-.792-.795c0-.44.355-.796.792-.796.436 0 .79.357.79.796a.794.794 0 01-.79.795z" fill="#FFC72B"/></svg>