<svg width="50" height="50" fill="none" xmlns="http://www.w3.org/2000/svg"><path d="M13.756 15.89a9.026 9.026 0 011.953.334c.654.215 1.248.49 1.758.86l-.485.681a6.829 6.829 0 00-1.686-.8 7.068 7.068 0 00-1.952-.275c-.546 0-1.055.048-1.443.179-.425.12-.752.275-1.03.49a1.76 1.76 0 00-.57.705c-.146.274-.195.573-.195.907 0 .67.218 1.16.655 1.494.424.334 1.019.537 1.783.633l1.988.263c1.055.143 1.88.477 2.523.98.618.513.945 1.23.945 2.114 0 .442-.084.86-.303 1.242a3.17 3.17 0 01-.812 1.003c-.376.3-.813.526-1.346.717-.522.18-1.116.275-1.783.335v2.102h-.885v-2.09a7.21 7.21 0 01-2.134-.37 8.135 8.135 0 01-2.05-1.004l.485-.717c.692.49 1.346.824 2.025 1.004a7.008 7.008 0 001.99.274c1.224 0 2.182-.227 2.885-.704.68-.478 1.019-1.088 1.019-1.84 0-.598-.23-1.087-.655-1.493-.46-.407-1.116-.646-2.025-.777l-2.098-.263c-1.019-.12-1.783-.442-2.316-.896-.534-.49-.8-1.158-.8-2.019 0-.442.085-.824.266-1.194.194-.37.45-.681.789-.968.315-.262.715-.49 1.176-.633.449-.179.958-.263 1.516-.298v-2.163h.836v2.187h-.024z" fill="#FFC72B"/><path d="M13.44 32.052C7.68 32.052 3 27.442 3 21.767c0-5.674 4.68-10.285 10.44-10.285s10.442 4.61 10.442 10.285c0 5.674-4.681 10.285-10.441 10.285zm0-19.734c-5.286 0-9.591 4.24-9.591 9.449 0 5.208 4.305 9.45 9.592 9.45 5.287 0 9.592-4.242 9.592-9.45 0-5.208-4.293-9.45-9.592-9.45zm17.523-2.21c.34-.526.752-.98 1.25-1.362.485-.382 1.067-.681 1.721-.908.655-.227 1.407-.334 2.244-.334a6.29 6.29 0 012.255.418 6.31 6.31 0 011.868 1.17l-.546.598a6.478 6.478 0 00-1.673-1.04 5.735 5.735 0 00-2.013-.346c-1.298 0-2.365.31-3.214.944-.836.645-1.406 1.493-1.71 2.556h4.997l-.073.788h-7.022v-.704l1.189-.084c.158-.61.412-1.17.727-1.696zm4.875 4.79H31.11c.267 1.135.813 2.055 1.637 2.7.849.645 1.904.98 3.177.98.849 0 1.613-.144 2.256-.383.679-.275 1.26-.669 1.819-1.207l.545.574a5.899 5.899 0 01-2.049 1.362c-.764.31-1.637.454-2.62.454-1.588 0-2.861-.407-3.855-1.195-.958-.788-1.601-1.887-1.868-3.297l-1.116-.084v-.692H35.9l-.06.788z" fill="#FFC72B"/><path d="M35.632 23.583c-5.76 0-10.44-4.611-10.44-10.286C25.191 7.623 29.871 3 35.631 3s10.441 4.611 10.441 10.285c0 5.675-4.68 10.298-10.44 10.298zm0-19.747c-5.287 0-9.592 4.241-9.592 9.45 0 5.208 4.305 9.449 9.592 9.449 5.287 0 9.592-4.241 9.592-9.45 0-5.208-4.293-9.449-9.592-9.449zm-1.018 29.112c.497.144.958.37 1.321.67.388.298.68.644.873 1.062.194.419.304.896.304 1.422 0 .526-.11 1.003-.28 1.433-.218.419-.484.777-.848 1.064a4.223 4.223 0 01-1.334.68 6.592 6.592 0 01-1.758.227h-3.578v1.769h3.917v.752h-3.929v2.079h-.849v-2.031l-1.685-.155v-.645h1.649v-1.768h-1.65v-.777h1.65v-6.045h4.487c.606.012 1.176.084 1.71.263zm-1.747 5.794c1.068 0 1.88-.227 2.486-.68.57-.479.873-1.124.873-1.948 0-.836-.279-1.493-.873-1.947-.57-.478-1.406-.705-2.486-.705H29.29v5.268h3.577v.012z" fill="#FFC72B"/><path d="M31.206 48c-5.76 0-10.44-4.611-10.44-10.285 0-5.675 4.68-10.286 10.44-10.286s10.44 4.611 10.44 10.286c0 5.674-4.68 10.285-10.44 10.285zm0-19.746c-5.287 0-9.592 4.24-9.592 9.449 0 5.208 4.305 9.449 9.592 9.449 5.287 0 9.592-4.24 9.592-9.45 0-5.208-4.305-9.448-9.592-9.448z" fill="#FFC72B"/></svg>