<svg width="50" height="50" fill="none" xmlns="http://www.w3.org/2000/svg"><path d="M16.96 30.19C10.91 30.19 6 25.258 6 19.181c0-6.076 4.91-11.008 10.96-11.008 6.048 0 10.958 4.932 10.958 11.008 0 6.077-4.926 11.01-10.959 11.01zm0-21.05c-5.52 0-9.997 4.513-9.997 10.041 0 5.529 4.476 10.042 9.996 10.042 5.52 0 9.996-4.497 9.996-10.042 0-5.544-4.492-10.041-9.996-10.041z" fill="#FFC72B"/><path d="M23.987 11.67L22.88 1.967H11.038L9.931 11.67l-.963-.113L10.188 1H23.73l1.22 10.557-.963.113zm-7.204 8.188l-3.466-6.076.834-.468 2.969 5.19 3.401-2.127.514.822-4.252 2.66z" fill="#FFC72B"/><path d="M16.96 28.046c-.194 0-.402 0-.61-.016l.063-.967c.29.016.578.016.85.016h.033l.048.967h-.385zm3.866-.886l-.417-.87c.257-.13.53-.275.77-.436l.514.822c-.273.161-.562.339-.867.484zm-7.943-.113a6.645 6.645 0 01-.85-.516l.546-.806c.24.161.497.323.754.452l-.45.87zm11.393-2.901l-.802-.548c.16-.242.32-.5.449-.758l.85.451c-.144.29-.32.58-.497.855zm-14.762-.194a7.558 7.558 0 01-.481-.87l.866-.42c.128.259.273.517.433.774l-.818.516zm16.254-4.142l-.963-.065c.016-.177.016-.37.016-.548v-.322l.963-.064v.386c0 .194-.016.403-.016.613zm-17.634-.242v-.402c0-.21 0-.42.016-.63l.963.065c-.016.193-.016.37-.016.564v.355l-.963.048zm15.901-3.836a7.313 7.313 0 00-.433-.774l.818-.515c.177.274.337.564.482.87l-.867.419zm-14.04-.21l-.85-.45c.16-.291.32-.581.513-.855l.803.548a4.56 4.56 0 00-.466.757zm11.36-2.885a7.171 7.171 0 00-.754-.451l.45-.854c.289.16.577.322.85.515l-.546.79zm-8.6-.129l-.513-.822a7.5 7.5 0 01.866-.483l.417.87a5.96 5.96 0 00-.77.435zm4.766-1.208a7.757 7.757 0 00-.867-.017l-.048-.967h.016c.321-.016.658-.016.979.016l-.08.967zm6.995 19.132l.434-3.707-.963-.113-.45 3.884c.322-.032.643-.048.98-.064zm-8.841 5.867h-4.637l-1.107-9.687-.963.113 1.22 10.54h5.487V36.3zm20.779-14.087c-3.85 0-7.958 1.08-7.958 3.078v6.867c.224.032.53.096.93.193.017 0 .033 0 .033.016v-1.757c1.444 1.016 4.268 1.547 6.995 1.547 2.728 0 5.552-.531 6.996-1.547v2.257c0 .886-2.663 2.111-6.996 2.111-1.331 0-2.503-.113-3.498-.306.016.29-.064.467-.064.467v.484c1.123.21 2.343.306 3.562.306 2.712 0 5.552-.532 6.996-1.547v2.256c0 .887-2.663 2.112-6.996 2.112-1.364 0-2.55-.13-3.562-.323v.968c1.123.21 2.343.306 3.562.306 2.712 0 5.552-.532 6.996-1.548v2.257c0 .886-2.663 2.111-6.996 2.111-1.364 0-2.55-.129-3.562-.322v.967c1.123.21 2.343.306 3.562.306 3.851 0 7.959-1.08 7.959-3.078V25.226c0-1.934-4.108-3.014-7.959-3.014zm6.996 6.866c0 .886-2.663 2.111-6.996 2.111-4.332 0-6.995-1.225-6.995-2.111V26.82c1.444 1.016 4.268 1.548 6.995 1.548 2.728 0 5.552-.532 6.996-1.548v2.257zm-6.996-1.66c-4.332 0-6.995-1.225-6.995-2.112 0-.886 2.663-2.111 6.995-2.111 4.333 0 6.996 1.225 6.996 2.111 0 .887-2.663 2.112-6.996 2.112z" fill="#FFC72B"/><path d="M25.415 31.48c-3.85 0-7.959 1.08-7.959 3.078v11.363c0 2 4.092 3.079 7.959 3.079 3.851 0 7.959-1.08 7.959-3.079V34.558c0-1.999-4.092-3.078-7.959-3.078zm0 .967c4.332 0 6.996 1.225 6.996 2.111 0 .887-2.664 2.112-6.996 2.112-4.332 0-6.996-1.225-6.996-2.112 0-.886 2.664-2.111 6.996-2.111zm0 15.602c-4.332 0-6.996-1.225-6.996-2.111V43.68c1.444 1.015 4.268 1.547 6.996 1.547 2.712 0 5.552-.532 6.996-1.547v2.257c0 .87-2.664 2.111-6.996 2.111zm0-3.788c-4.332 0-6.996-1.225-6.996-2.111v-2.257c1.444 1.016 4.268 1.547 6.996 1.547 2.712 0 5.552-.531 6.996-1.547v2.257c0 .87-2.664 2.111-6.996 2.111zm0-3.804c-4.332 0-6.996-1.225-6.996-2.111v-2.257c1.444 1.016 4.268 1.548 6.996 1.548 2.712 0 5.552-.532 6.996-1.548v2.257c0 .886-2.664 2.111-6.996 2.111z" fill="#FFC72B"/></svg>