<svg width="50" height="50" fill="none" xmlns="http://www.w3.org/2000/svg"><path d="M34.701 7.357H14.559v1.066H34.7V7.357zm0 5.381H14.559v1.066H34.7v-1.066zm0 5.363H14.559v1.065H34.7v-1.065zM30.76 46.567l-1.336-5.611 1.02-.249.844 3.498 1.495-1.882 1.795 1.119-1.513-6.98 1.02-.23 2.059 9.43-3.114-1.936-2.27 2.841z" fill="#FFC72B"/><path d="M9 1v41.057h16.149l.229-1.066H10.056V2.065h29.307v38.926h-4.785l.246 1.066h5.594V1H9z" fill="#FFC72B"/><path d="M29.881 40.991l-.229 1.066h.58l-.263-1.066h-.088z" fill="#FFC72B"/><path d="M28.738 49l-2.147-2.912-3.236 1.882 2.005-9.43 1.038.231-1.513 7.086 1.988-1.154 1.32 1.775 1.723-8.293 1.038.231L28.738 49z" fill="#FFC72B"/><path d="M29.142 40.37c-.65 0-1.02-.693-1.337-1.297-.123-.23-.299-.586-.422-.692-.158.035-.528.266-.739.408-.598.373-1.214.764-1.759.444-.563-.32-.528-1.066-.51-1.776.017-.266.017-.675-.018-.834-.158-.054-.58-.036-.826-.018-.704.018-1.443.053-1.76-.515-.316-.55.07-1.172.44-1.776.14-.23.37-.586.405-.746-.106-.124-.475-.302-.686-.426-.598-.32-1.285-.693-1.285-1.35 0-.657.687-1.03 1.285-1.35.228-.124.58-.301.686-.425-.035-.16-.264-.533-.405-.746-.37-.604-.756-1.226-.44-1.776.317-.568 1.056-.533 1.76-.515.263.018.668.018.826-.018.053-.16.035-.586.018-.834-.018-.71-.053-1.457.51-1.776.545-.32 1.161.07 1.76.444.228.142.58.373.738.408.123-.106.3-.48.422-.692.317-.604.686-1.297 1.337-1.297.651 0 1.02.693 1.337 1.297.123.23.3.586.422.692.159-.035.528-.266.74-.408.597-.373 1.213-.764 1.758-.444.563.32.528 1.065.51 1.776-.017.266-.017.674.018.834.158.053.58.036.827.018.703-.018 1.442-.053 1.759.515.317.55-.07 1.172-.44 1.776-.14.23-.37.586-.404.745.105.125.475.302.686.427.598.32 1.284.692 1.284 1.35 0 .656-.686 1.03-1.284 1.349-.23.124-.58.302-.686.426.035.16.263.533.404.746.37.604.757 1.225.44 1.776-.317.568-1.056.532-1.76.515-.263-.018-.668-.018-.826.018-.053.16-.035.586-.018.834.018.71.053 1.456-.51 1.776-.545.32-1.16-.071-1.759-.444-.229-.142-.58-.373-.739-.408-.123.106-.299.48-.422.692-.317.604-.686 1.297-1.337 1.297zm-1.724-3.073c.088 0 .159.018.247.036.492.142.774.675 1.073 1.243.105.213.281.533.404.675.123-.142.3-.48.405-.675.299-.568.58-1.101 1.073-1.243.51-.142 1.038.195 1.583.533.194.124.475.301.65.373.036-.196.018-.533 0-.764-.017-.657-.052-1.26.318-1.634.369-.373.985-.355 1.618-.32.229 0 .563.018.756 0-.07-.177-.246-.461-.369-.657-.352-.55-.669-1.083-.528-1.598.141-.497.669-.781 1.232-1.083.21-.106.527-.284.668-.408-.14-.125-.475-.302-.668-.409-.563-.302-1.091-.586-1.232-1.083-.14-.515.194-1.048.528-1.598.123-.196.299-.48.37-.657-.194-.036-.528-.018-.757 0-.633.017-1.249.053-1.618-.32-.37-.373-.352-.994-.317-1.634 0-.23.017-.568 0-.763-.176.07-.457.248-.651.373-.545.355-1.073.674-1.583.532-.493-.142-.774-.675-1.073-1.243-.106-.213-.282-.532-.405-.674-.123.142-.299.479-.404.674-.3.569-.581 1.101-1.073 1.243-.51.142-1.038-.195-1.584-.532-.193-.125-.475-.302-.65-.373-.036.195-.018.532 0 .763.017.657.052 1.261-.317 1.634-.37.373-.985.355-1.619.32-.228 0-.563-.018-.756 0 .07.177.246.461.37.657.351.55.668 1.083.527 1.598-.14.497-.668.781-1.231 1.083-.212.107-.528.284-.669.409.14.124.475.302.669.408.563.302 1.09.586 1.231 1.083.14.515-.194 1.048-.528 1.599-.123.195-.299.479-.37.657.194.035.529.017.757 0 .651-.018 1.25-.054 1.619.32.37.372.351.994.316 1.633 0 .23-.017.568 0 .764.176-.072.458-.25.651-.373.458-.302.897-.569 1.337-.569z" fill="#FFC72B"/><path d="M29.142 36.694c-2.691 0-4.89-2.22-4.89-4.937s2.199-4.937 4.89-4.937c2.692 0 4.89 2.22 4.89 4.937s-2.18 4.937-4.89 4.937zm0-8.826c-2.11 0-3.835 1.74-3.835 3.871 0 2.131 1.724 3.871 3.835 3.871 2.111 0 3.835-1.74 3.835-3.87 0-2.132-1.724-3.872-3.835-3.872z" fill="#FFC72B"/><path d="M29.248 34.314l-2.534-2.575.74-.746 1.582 1.58 1.83-3.107.897.533-2.515 4.315z" fill="#FFC72B"/></svg>