<svg width="324" height="246" fill="none" xmlns="http://www.w3.org/2000/svg"><g clip-path="url(#clip0)" stroke="#FFC72B"><path d="M312.382 101.019c0-1.608 11.354-3.508 11.271-5.095-.09-1.608-11.57-2.343-11.722-3.937-.174-1.595 10.924-4.631 10.689-6.204-.243-1.595-11.744-1.172-12.063-2.732-.333-1.58 10.419-5.712 10.016-7.264-.409-1.553-11.805.041-12.284-1.477-.492-1.539 9.78-6.745 9.232-8.249-.568-1.497-11.743 1.241-12.374-.229-.631-1.483 9.045-7.7 8.337-9.136-.707-1.442-11.556 2.42-12.333 1.02-.769-1.401 8.227-8.569 7.374-9.934-.846-1.359-11.251 3.584-12.16 2.273-.915-1.31 7.311-9.358 6.333-10.633-.978-1.262-10.827 4.707-11.875 3.487-1.04-1.213 6.333-10.045 5.223-11.216-1.103-1.151-10.3 5.767-11.459 4.658-1.165-1.11 5.3-10.634 4.072-11.68-1.214-1.04-9.669 6.772-10.946 5.788-1.262-.978 4.197-11.105 2.886-12.027-1.311-.908-8.941 7.701-10.315 6.863-1.359-.853 3.073-11.48 1.665-12.256-1.401-.783-8.115 8.56-9.551 7.847-1.443-.707 1.886-11.722.402-12.346-1.477-.651-7.214 9.344-8.712 8.769-1.505-.555.673-11.854-.867-12.325-1.519-.485-6.208 10.024-7.769 9.615-1.54-.402-.527-11.854-2.116-12.18-1.56-.319-5.153 10.613-6.735 10.363-1.588-.235-1.734-11.742-3.343-11.909-1.582-.159-4.058 11.078-5.674 10.994-1.589-.083-2.9-11.507-4.523-11.513-1.609.006-2.92 11.43-4.522 11.513-1.603.084-4.079-11.146-5.681-10.994-1.596.174-1.741 11.674-3.316 11.91-1.602.256-5.188-10.683-6.756-10.364-1.567.326-.555 11.784-2.115 12.186-1.547.41-6.236-10.1-7.769-9.621-1.526.471.645 11.77-.846 12.325-1.513.568-7.249-9.42-8.72-8.776-1.47.631 1.839 11.646.396 12.353-1.436.707-8.144-8.637-9.538-7.854-1.401.77 2.997 11.403 1.644 12.263-1.359.838-8.982-7.778-10.3-6.863-1.318.929 4.155 11.05 2.885 12.027-1.262.984-9.718-6.835-10.939-5.788-1.206 1.046 5.237 10.57 4.086 11.68-1.165 1.11-10.37-5.809-11.473-4.658-1.096 1.171 6.278 10.003 5.23 11.216-1.047 1.22-10.883-4.749-11.875-3.48-.985 1.275 7.256 9.316 6.333 10.626-.916 1.31-11.306-3.639-12.159-2.273-.861 1.365 8.15 8.533 7.366 9.933-.784 1.4-11.625-2.46-12.333-1.026-.707 1.442 8.983 7.667 8.338 9.15-.632 1.47-11.806-1.275-12.361.222-.562 1.504 9.704 6.71 9.211 8.25-.464 1.517-11.875-.07-12.284 1.476-.388 1.552 10.349 5.69 10.023 7.271-.319 1.56-11.819 1.13-12.076 2.724-.236 1.567 10.862 4.61 10.703 6.205-.167 1.594-11.653 2.329-11.737 3.937-.083 1.58 11.272 3.487 11.272 5.095.007 1.622-11.355 3.507-11.272 5.109.091 1.601 11.577 2.336 11.737 3.937.159 1.594-10.946 4.617-10.703 6.204.257 1.587 11.75 1.165 12.076 2.724.326 1.588-10.411 5.719-10.023 7.258.402 1.56 11.82-.035 12.284 1.483.486 1.546-9.78 6.745-9.218 8.243.555 1.504 11.729-1.241 12.368.235.645 1.477-9.045 7.695-8.338 9.13.708 1.448 11.549-2.427 12.333-1.026.784 1.4-8.227 8.567-7.373 9.926.853 1.373 11.25-3.57 12.159-2.26.93 1.31-7.311 9.352-6.333 10.627.992 1.262 10.835-4.7 11.875-3.48 1.062 1.206-6.326 10.038-5.23 11.209 1.11 1.151 10.308-5.767 11.473-4.658 1.152 1.109-5.292 10.626-4.085 11.673 1.22 1.054 9.676-6.758 10.938-5.781 1.277.984-4.189 11.112-2.878 12.034 1.324.915 8.948-7.702 10.3-6.856 1.36.86-3.052 11.465-1.651 12.256 1.401.783 8.116-8.554 9.538-7.854 1.443.707-1.866 11.715-.389 12.353 1.464.644 7.2-9.345 8.713-8.783 1.491.561-.673 11.867.853 12.332 1.533.478 6.215-10.024 7.769-9.622 1.553.409.541 11.861 2.115 12.18 1.568.325 5.154-10.613 6.749-10.357 1.575.236 1.734 11.736 3.33 11.909 1.595.153 4.071-11.084 5.674-10.994 1.602.083 2.906 11.507 4.522 11.514 1.623-.007 2.927-11.431 4.523-11.514 1.616-.09 4.085 11.154 5.667 11.001 1.609-.173 1.762-11.68 3.35-11.916 1.589-.249 5.175 10.682 6.735 10.363 1.589-.325.569-11.777 2.109-12.186 1.568-.402 6.25 10.1 7.769 9.622 1.54-.472-.631-11.778.874-12.339 1.491-.555 7.221 9.434 8.691 8.796 1.485-.63-1.838-11.645-.402-12.345 1.45-.707 8.157 8.63 9.558 7.847 1.401-.784-3.017-11.396-1.658-12.256 1.374-.839 8.99 7.778 10.301 6.87 1.318-.929-4.148-11.05-2.879-12.034 1.277-.978 9.725 6.828 10.939 5.781 1.221-1.047-5.23-10.564-4.065-11.673 1.159-1.103 10.35 5.815 11.459 4.651 1.11-1.151-6.27-9.989-5.223-11.209 1.041-1.213 10.89 4.762 11.875 3.494.978-1.269-7.241-9.31-6.333-10.627.909-1.31 11.321 3.632 12.16 2.26.86-1.359-8.143-8.519-7.373-9.927.783-1.393 11.625 2.468 12.339 1.026.708-1.435-8.968-7.659-8.337-9.129.631-1.477 11.806 1.268 12.374-.229.548-1.504-9.717-6.71-9.232-8.249.486-1.525 11.882.07 12.291-1.497.403-1.539-10.349-5.677-10.016-7.251.319-1.56 11.827-1.144 12.063-2.731.235-1.587-10.87-4.603-10.689-6.197.152-1.601 11.632-2.336 11.722-3.938.083-1.622-11.271-3.507-11.271-5.129zm-89.321 75.017c-41.452-.083-74.975-33.578-75.059-75.017.084-41.44 33.607-74.941 75.059-75.004 41.48.056 75.011 33.565 75.08 75.004-.069 41.439-33.6 74.934-75.08 75.017z"/><path d="M223.054 58.374c-23.563 0-42.652 19.09-42.652 42.631 0 23.555 19.089 42.652 42.652 42.652 23.577 0 42.666-19.097 42.666-42.652 0-23.54-19.096-42.631-42.666-42.631zm.007 56.46c-7.63 0-13.817-6.176-13.817-13.808 0-7.625 6.187-13.822 13.817-13.822 7.637 0 13.831 6.197 13.831 13.822-.007 7.625-6.194 13.808-13.831 13.808zM77.625 66.609c0-8.492 6.895-15.375 15.379-15.375 8.504 0 15.384 6.876 15.384 15.375 0 8.485-6.88 15.368-15.385 15.368-8.49 0-15.378-6.89-15.378-15.368zm64.162 134.708a9.105 9.105 0 019.129-9.116c5.07 0 9.142 4.069 9.142 9.116a9.118 9.118 0 01-9.142 9.143 9.115 9.115 0 01-9.129-9.143zM22.35 175.475c31.643 0 57.8-23.43 62.094-53.868a62.241 62.241 0 0117.958 9.455c-12.555 11.458-20.427 27.942-20.427 46.284 0 20.408 9.773 38.535 24.908 49.986a62.522 62.522 0 01-16.703 10.946c-5.473-29.038-30.97-51.019-61.616-51.019-9.128 0-17.771 1.976-25.61 5.476a62.89 62.89 0 01-1.109-11.673c0-3.002.236-5.934.645-8.818a62.48 62.48 0 0019.86 3.231z"/><path d="M66.007 245.653c-36.25 0-65.66-29.391-65.66-65.624.007-36.247 29.41-65.632 65.66-65.632 36.291 0 65.688 29.392 65.688 65.632 0 36.233-29.397 65.624-65.688 65.624zm0-4.699c16.855 0 32.08-6.828 43.11-17.85 11.049-11.036 17.854-26.244 17.854-43.082 0-16.831-6.812-32.053-17.854-43.075-11.03-11.029-26.255-17.85-43.11-17.85-16.842 0-32.053 6.821-43.103 17.85C11.875 147.969 5.05 163.191 5.05 180.022c0 16.838 6.825 32.046 17.854 43.082 11.05 11.022 26.261 17.85 43.103 17.85z" fill="#fff"/><path d="M64.571 172.903c-4.502 0-8.15 3.66-8.15 8.152a8.142 8.142 0 008.15 8.145 8.14 8.14 0 008.157-8.145 8.15 8.15 0 00-8.157-8.152z"/></g><defs><clipPath id="clip0"><path fill="#fff" d="M0 0h324v246H0z"/></clipPath></defs></svg>