<svg width="307" height="225" fill="none" xmlns="http://www.w3.org/2000/svg"><path d="M249.777 72.599c0 8.61-6.969 15.589-15.59 15.589-8.599 0-15.568-6.979-15.568-15.59 0-8.61 6.958-15.6 15.568-15.6 8.621 0 15.59 6.979 15.59 15.6zm-62.371 21.374c0 1.61-10.555 2.915-10.633 4.503-.09 1.598 10.262 4.029 10.093 5.616-.168 1.598-10.802 1.767-11.06 3.332-.259 1.576 9.768 5.121 9.43 6.674-.337 1.565-10.925.574-11.352 2.105-.427 1.542 9.149 6.157 8.644 7.654-.506 1.52-10.926-.619-11.51.855-.596 1.486 8.43 7.114 7.767 8.555-.675 1.452-10.791-1.812-11.533-.405-.753 1.406 7.61 7.991 6.789 9.353-.82 1.362-10.532-2.972-11.431-1.655-.899 1.317 6.71 8.757 5.744 10.029-.967 1.272-10.15-4.086-11.184-2.87-1.034 1.216 5.721 9.432 4.631 10.591-1.09 1.16-9.655-5.155-10.813-4.063-1.158 1.092 4.676 9.995 3.462 11.031-1.214 1.035-9.037-6.168-10.307-5.2-1.27.968 3.585 10.445 2.259 11.334-1.315.889-8.329-7.113-9.689-6.281-1.36.822 2.439 10.761 1.023 11.515-1.405.743-7.509-7.969-8.959-7.294-1.438.664 1.259 10.963-.224 11.56-1.473.585-6.598-8.735-8.104-8.228-1.507.506.056 11.042-1.484 11.469-1.529.428-5.609-9.409-7.16-9.06-1.551.337-1.146 10.974-2.72 11.233-1.562.259-4.552-9.961-6.137-9.793-1.574.169-2.316 10.795-3.923 10.873-1.585.09-3.45-10.389-5.058-10.389-1.607 0-3.473 10.479-5.058 10.389-1.596-.09-2.338-10.704-3.923-10.873-1.596-.168-4.575 10.04-6.137 9.793-1.574-.259-1.169-10.896-2.72-11.233-1.562-.338-5.631 9.488-7.16 9.06-1.54-.427.023-10.951-1.484-11.469-1.517-.507-6.631 8.813-8.104 8.228-1.483-.597 1.214-10.884-.224-11.56-1.45-.675-7.554 8.048-8.959 7.294-1.405-.754 2.383-10.693 1.023-11.515-1.36-.821-8.374 7.181-9.689 6.281-1.315-.9 3.53-10.366 2.26-11.334s-9.094 6.235-10.308 5.2c-1.214-1.036 4.62-9.928 3.473-11.031-1.157-1.092-9.711 5.223-10.813 4.063-1.09-1.159 5.665-9.375 4.631-10.591-1.034-1.216-10.217 4.142-11.183 2.87-.967-1.272 6.642-8.712 5.743-10.029-.888-1.317-10.6 3.017-11.431 1.655-.82-1.362 7.542-7.935 6.789-9.353-.742-1.407-10.87 1.845-11.532.405-.663-1.441 8.351-7.069 7.767-8.555-.585-1.474-11.004.653-11.51-.855-.506-1.508 9.07-6.112 8.643-7.654-.427-1.531-11.004-.54-11.352-2.105-.337-1.553 9.689-5.087 9.43-6.674-.258-1.565-10.88-1.734-11.06-3.332-.169-1.576 10.184-4.007 10.094-5.605C11.083 96.9.54 95.594.54 93.985c0-1.61 10.554-2.916 10.633-4.503.09-1.598-10.263-4.03-10.094-5.616.169-1.599 10.802-1.767 11.06-3.332.259-1.576-9.767-5.121-9.43-6.675.337-1.564 10.925-.573 11.352-2.104.428-1.542-9.15-6.157-8.643-7.654.506-1.52 10.925.619 11.51-.855.595-1.486-8.43-7.114-7.767-8.555.674-1.452 10.79 1.812 11.532.405.753-1.407-7.61-7.991-6.789-9.353.82-1.362 10.532 2.971 11.431 1.654.9-1.316-6.71-8.756-5.744-10.028.967-1.272 10.15 4.086 11.184 2.87 1.034-1.216-5.72-9.432-4.63-10.592 1.09-1.159 9.655 5.156 10.812 4.064 1.158-1.092-4.675-9.995-3.462-11.03 1.214-1.036 9.037 6.167 10.308 5.2 1.27-.969-3.586-10.446-2.26-11.335 1.315-.89 8.33 7.113 9.69 6.28 1.36-.821-2.44-10.76-1.024-11.514 1.405-.743 7.509 7.969 8.959 7.294 1.438-.664-1.26-10.963.225-11.56 1.472-.585 6.597 8.735 8.104 8.228 1.506-.506-.057-11.042 1.483-11.47 1.529-.427 5.61 9.41 7.16 9.061 1.551-.337 1.147-10.974 2.72-11.233 1.563-.259 4.553 9.961 6.137 9.793C86.571 11.255 87.313.63 88.92.552c1.585-.09 3.45 10.389 5.058 10.389 1.608 0 3.473-10.48 5.058-10.39 1.596.09 2.338 10.705 3.923 10.873 1.596.17 4.575-10.04 6.137-9.792 1.574.259 1.169 10.896 2.72 11.233 1.563.338 5.631-9.488 7.16-9.06 1.54.427-.022 10.951 1.484 11.469 1.517.507 6.631-8.813 8.104-8.228 1.484.597-1.214 10.884.225 11.56 1.45.675 7.553-8.048 8.958-7.294 1.405.754-2.383 10.693-1.023 11.514 1.36.822 8.374-7.18 9.689-6.28 1.315.9-3.529 10.366-2.259 11.334s9.093-6.235 10.307-5.2c1.214 1.036-4.62 9.928-3.473 11.03 1.158 1.093 9.711-5.222 10.813-4.063 1.09 1.16-5.665 9.376-4.631 10.592 1.034 1.216 10.217-4.142 11.184-2.87.966 1.272-6.643 8.712-5.744 10.029.899 1.316 10.599-3.017 11.431-1.655.821 1.362-7.542 7.935-6.789 9.353.742 1.407 10.869-1.845 11.533-.405.663 1.44-8.352 7.069-7.767 8.554.584 1.475 11.004-.652 11.51.856.505 1.508-9.071 6.112-8.644 7.654.427 1.53 11.004.54 11.352 2.105.338 1.553-9.689 5.087-9.43 6.674.258 1.565 10.88 1.733 11.06 3.332.169 1.576-10.183 4.007-10.093 5.605.078 1.587 10.633 2.904 10.633 4.502z" stroke="#FFC72B"/><path d="M28.966 116.867c-2.552-7.215-4.013-14.947-4.024-23.04.056-35.692 27.02-65.013 61.663-68.76 1.124 5.233 1.776 10.647 1.776 16.208.01 36.637-25.324 67.319-59.415 75.592zm65.012 46.092c-22.615-.034-42.622-10.974-55.211-27.813 13.77-12.381 31.967-19.933 51.93-19.933 21.805 0 41.542 9.049 55.637 23.558-12.667 14.767-31.393 24.154-52.356 24.188zm62.585-40.115c-31.079-10.175-53.581-39.361-53.581-73.882 0-8.048 1.292-15.792 3.563-23.085 32.112 5.954 56.436 34.06 56.481 67.939-.011 10.389-2.36 20.204-6.463 29.028zM80.535 93.816c0-7.429 6.014-13.484 13.42-13.484 7.442 0 13.444 6.044 13.444 13.484 0 7.417-6.002 13.45-13.443 13.45-7.407 0-13.42-6.033-13.42-13.45zm118.493 80.117l-2.394-2.319h-.011l2.405 2.319zm-2.394-2.319l-.742-.709c.011.259.326.484.742.709zm108.983-3.5l-2.214 2.296v.09c1.563-.045 3.024-3.23 3.024-3.23.011.281-.337.563-.81.844zm-5.451 2.87c.023-.608 1.574-1.227 3.125-1.846l.078-.034c.855-.337 1.653-.664 2.237-1.001l.809-.844c-.011-.608-1.528-1.115-3.113-1.633l-.022-.011c-1.63-.518-3.294-1.047-3.361-1.666-.135-1.238 5.912-3.343 5.676-4.558-.191-1.227-6.575-1.137-6.89-2.33-.292-1.216 5.361-4.165 4.99-5.335-.404-1.182-6.71-.169-7.171-1.317-.461-1.148 4.721-4.874 4.182-5.988-.551-1.114-6.643.788-7.273-.293-.64-1.069 3.979-5.492 3.271-6.506-.719-1.024-6.474 1.711-7.239.743-.775-.956 3.136-5.999 2.305-6.911-.866-.911-6.16 2.612-7.07 1.768-.9-.845 2.27-6.382 1.315-7.159-.978-.799-5.733 3.455-6.744 2.746-1.034-.72 1.337-6.652.27-7.282-1.068-.642-5.171 4.243-6.284 3.681-1.101-.563.394-6.776-.742-7.26-1.146-.473-4.529 4.952-5.687 4.558-1.18-.394-.596-6.753-1.798-7.068-1.192-.304-3.766 5.537-4.991 5.312-1.203-.214-1.54-6.595-2.788-6.731-1.213-.135-2.911 6.022-4.158 5.977-1.237-.056-2.473-6.314-3.732-6.269-1.236.045-2.057 6.382-3.282 6.506-1.248.135-3.35-5.91-4.564-5.696-1.236.214-1.124 6.596-2.326 6.911-1.226.304-4.148-5.358-5.317-4.975-1.18.394-.18 6.697-1.326 7.17-1.147.473-4.867-4.716-5.991-4.165-1.113.552.787 6.641-.27 7.283-1.057.641-5.485-3.962-6.519-3.264-1.023.709 1.72 6.472.764 7.248-.967.777-5.991-3.151-6.912-2.307-.9.844 2.63 6.168 1.775 7.068-.831.912-6.384-2.262-7.16-1.305-.786.979 3.474 5.74 2.754 6.753-.719 1.024-6.631-1.339-7.272-.281-.641 1.069 4.226 5.189 3.664 6.292-.562 1.103-6.755-.394-7.238.754-.472 1.137 4.934 4.525 4.552 5.695-.394 1.171-6.744.585-7.07 1.79-.304 1.204 5.552 3.77 5.316 4.997-.224 1.216-6.575 1.531-6.721 2.792-.146 1.227 6.013 2.915 5.957 4.176-.045 1.238-6.294 2.453-6.272 3.714l.742.72c1.652.878 5.654 1.61 5.766 2.578.124 1.249-5.901 3.354-5.676 4.57.225 1.226 6.587 1.136 6.901 2.329.293 1.216-5.361 4.154-4.968 5.324.382 1.182 6.677.192 7.149 1.329.472 1.148-4.721 4.885-4.159 5.976.551 1.115 6.654-.788 7.272.293.63 1.069-3.956 5.493-3.259 6.517.719 1.013 6.474-1.722 7.25-.765.775.968-3.159 6.01-2.293 6.922.831.911 6.148-2.623 7.036-1.767.933.844-2.259 6.382-1.304 7.169.978.788 5.721-3.466 6.755-2.746 1.012.698-1.348 6.63-.281 7.271 1.046.642 5.171-4.243 6.284-3.68 1.101.562-.383 6.764.764 7.248 1.146.473 4.518-4.952 5.699-4.547 1.169.383.573 6.753 1.776 7.069 1.202.315 3.765-5.549 4.99-5.324 1.214.225 1.54 6.595 2.788 6.742 1.225.124 2.922-6.022 4.158-5.977 1.237.045 2.473 6.314 3.732 6.269 1.259-.045 2.046-6.382 3.282-6.505 1.248-.147 3.35 5.898 4.564 5.684 1.236-.225 1.124-6.596 2.326-6.9 1.214-.304 4.148 5.358 5.339 4.975 1.169-.383.158-6.697 1.304-7.159 1.158-.484 4.879 4.717 5.991 4.154 1.113-.552-.787-6.664.281-7.283 1.068-.63 5.497 3.974 6.508 3.265 1.012-.71-1.719-6.472-.764-7.238.967-.788 6.013 3.14 6.913 2.296.899-.844-2.608-6.168-1.776-7.068.854-.912 6.384 2.273 7.148 1.317.787-.968-3.45-5.741-2.742-6.754.719-1.013 6.654 1.351 7.283.27.63-1.069-4.237-5.166-3.675-6.28.562-1.115 6.755.371 7.227-.766.484-1.148-4.923-4.513-4.541-5.695.405-1.182 6.744-.585 7.07-1.79.292-1.204-5.53-3.759-5.316-4.997.224-1.216 6.598-1.542 6.721-2.78.09-1.216-6.047-2.915-6.002-4.165zm-48.95-1.801l-.068.102-.056-.102h.124zm-38.621 17.458c-2.248-4.941-3.608-10.389-3.777-16.163-.731-22.557 16.253-41.489 38.407-43.571v39.71l-34.63 20.024zm39.936 24.852c-14.657.462-27.797-6.584-35.766-17.671l34.574-19.979 34.249 19.788c-7.396 10.388-19.333 17.378-33.057 17.862zm37.171-25.077l-34.193-19.765v-39.688c20.738 2.173 37.216 19.293 37.958 40.701a42.375 42.375 0 01-3.765 18.752z" stroke="#FFC72B"/><path d="M236.615 169.093c0-8.014 6.496-14.542 14.522-14.542 8.025 0 14.522 6.517 14.522 14.542 0 8.048-6.497 14.543-14.522 14.543-8.037 0-14.522-6.495-14.522-14.543z" fill="#fff" stroke="#FFC72B"/></svg>