<svg width="32" height="32" fill="none" xmlns="http://www.w3.org/2000/svg"><path fill-rule="evenodd" clip-rule="evenodd" d="M6.827 16.734A1.226 1.226 0 105.6 15.51c0 .675.548 1.224 1.227 1.224zm0 .8A2.026 2.026 0 104.8 15.51c0 1.118.907 2.024 2.027 2.024zm6.08-5.861a1.226 1.226 0 10.002-2.451 1.226 1.226 0 00-.002 2.451zm0 .8a2.026 2.026 0 10-2.027-2.024c0 1.118.907 2.024 2.027 2.024zm6.08 4.261a1.225 1.225 0 10-1.227-1.224c0 .675.548 1.224 1.227 1.224zm0 .8a2.026 2.026 0 10-2.027-2.024c0 1.118.907 2.024 2.027 2.024zm6.08-7.885a1.226 1.226 0 10.002-2.451 1.226 1.226 0 00-.002 2.45zm0 .8a2.026 2.026 0 10-2.027-2.025c0 1.118.908 2.025 2.027 2.025z" fill="#000"/><path fill-rule="evenodd" clip-rule="evenodd" d="M12.133 11.78L8.08 14.819l-.48-.64 4.054-3.037.48.64zm5.601 3.038L13.68 11.78l.48-.64 4.053 3.036-.48.64zm6.632-5.131l-4.054 5.06-.624-.5 4.053-5.06.625.5zM6.827 19.159a.4.4 0 01.4.4v6.073a.4.4 0 11-.8 0v-6.073a.4.4 0 01.4-.4zm12.16 0a.4.4 0 01.4.4v6.073a.4.4 0 11-.8 0v-6.073a.4.4 0 01.4-.4zm6.08-7.086a.4.4 0 01.4.4v13.159a.4.4 0 11-.8 0V12.473a.4.4 0 01.4-.4zm-12.16 2.025a.4.4 0 01.4.4v11.134a.4.4 0 01-.8 0V14.498a.4.4 0 01.4-.4z" fill="#000"/></svg>