<svg width="32" height="32" fill="none" xmlns="http://www.w3.org/2000/svg"><path fill-rule="evenodd" clip-rule="evenodd" d="M7.6 5.6c0-.22.18-.4.4-.4h16c.22 0 .4.18.4.4v15.2a.4.4 0 01-.146.309l-6.8 5.6a.4.4 0 01-.254.091H8a.4.4 0 01-.4-.4V5.6zm.8.4v20h8.38a6.112 6.112 0 00-.055-.446c-.057-.352-.149-.707-.283-.975-.114-.229-.347-.448-.631-.634a3.421 3.421 0 00-.738-.365.4.4 0 01.022-.766l8.505-2.32V6H8.4zm13.906 15.677l-6 1.636c.32.218.657.52.852.908.186.372.294.818.357 1.205.01.06.018.118.026.175l4.765-3.924z" fill="#8694A8"/><path fill-rule="evenodd" clip-rule="evenodd" d="M18.63 7.672a.4.4 0 01.098.558l-2.8 4a.4.4 0 01-.61.053l-1.6-1.6a.4.4 0 01.565-.566l1.263 1.263 2.526-3.61a.4.4 0 01.557-.098zM10.4 14c0-.22.18-.4.4-.4h10.4a.4.4 0 010 .8H10.8a.4.4 0 01-.4-.4zm0 2.4c0-.22.18-.4.4-.4h10.4a.4.4 0 010 .8H10.8a.4.4 0 01-.4-.4zm0 2.4c0-.22.18-.4.4-.4h8a.4.4 0 010 .8h-8a.4.4 0 01-.4-.4z" fill="#8694A8"/></svg>