<svg width="40" height="40" fill="none" xmlns="http://www.w3.org/2000/svg"><path d="M19.069 27.7h1.037v-1.513c2.618-.204 3.604-1.768 3.604-3.315 0-2.21-1.853-2.873-3.604-3.366v-3.689a4.16 4.16 0 012.499 1.292l.85-1.037c-.833-.867-1.938-1.411-3.35-1.547v-1.581H19.07v1.564c-2.057.119-3.536 1.36-3.536 3.128 0 2.091 1.802 2.669 3.536 3.145v4.148a4.808 4.808 0 01-3.06-1.598l-.833 1.071c.85.969 2.159 1.683 3.893 1.785V27.7zm3.179-4.709c0 .799-.527 1.768-2.142 1.938V21.07c1.19.357 2.142.816 2.142 1.921zm-5.253-5.44c0-1.003.85-1.7 2.074-1.785v3.468c-1.156-.34-2.074-.731-2.074-1.683z" fill="#000"/><rect x=".5" y=".5" width="39" height="39" rx="1.5" stroke="#000"/></svg>