<svg width="24" height="24" fill="none" xmlns="http://www.w3.org/2000/svg"><path fill-rule="evenodd" clip-rule="evenodd" d="M22 6H2v11h20V6zM1 5v13h22V5H1z" fill="#FFC72B"/><path fill-rule="evenodd" clip-rule="evenodd" d="M1.075 5.737a.5.5 0 01.688-.162l10.23 6.333 9.734-6.327a.5.5 0 11.546.838l-10 6.5a.5.5 0 01-.536.006l-10.5-6.5a.5.5 0 01-.162-.688z" fill="#FFC72B"/><path fill-rule="evenodd" clip-rule="evenodd" d="M12.567 11.75a.5.5 0 01.684-.183l9.5 5.5a.5.5 0 11-.502.866l-9.5-5.5a.5.5 0 01-.182-.683zm-1.64-.01a.5.5 0 01-.166.687l-9 5.5a.5.5 0 01-.522-.854l9-5.5a.5.5 0 01.688.166z" fill="#FFC72B"/></svg>