<svg width="40" height="40" fill="none" xmlns="http://www.w3.org/2000/svg"><path d="M21.145 26.204c2.006 0 3.366-.952 4.318-2.244l-1.207-.663a3.782 3.782 0 01-3.11 1.649c-1.939 0-3.52-1.173-4.115-2.975h5.151v-.884h-5.355a5.848 5.848 0 010-1.53h5.355v-.884h-5.15c.611-1.785 2.175-2.941 4.113-2.941 1.292 0 2.465.697 3.111 1.649l1.19-.663c-.9-1.275-2.295-2.244-4.3-2.244-2.72 0-4.948 1.649-5.628 4.199h-.9v.884h.73c-.017.255-.034.527-.034.782s.017.51.034.748h-.73v.884h.9c.663 2.584 2.89 4.233 5.627 4.233z" fill="#000"/><rect x=".5" y=".5" width="39" height="39" rx="1.5" stroke="#000"/></svg>