<svg width="42" height="44" fill="none" xmlns="http://www.w3.org/2000/svg"><path d="M42 21.778C42 9.749 32.6 0 21 0S0 9.749 0 21.778c0 10.872 7.678 19.88 17.719 21.514v-15.22h-5.332v-6.294h5.332V16.98c0-5.457 3.133-8.473 7.932-8.473 2.297 0 4.7.425 4.7.425v5.36h-2.649c-2.609 0-3.42 1.68-3.42 3.402v4.084h5.823l-.93 6.295H24.28v15.219C34.321 41.658 42 32.65 42 21.778z" fill="#1877F2"/><path d="M29.174 28.073l.931-6.295h-5.824v-4.084c0-1.722.812-3.402 3.421-3.402h2.65v-5.36s-2.404-.425-4.7-.425c-4.8 0-7.933 3.016-7.933 8.473v4.798h-5.332v6.295h5.332v15.219c1.07.174 2.165.263 3.281.263s2.21-.089 3.281-.263v-15.22h4.893z" fill="#fff"/></svg>