<svg width="24" height="24" fill="none" xmlns="http://www.w3.org/2000/svg"><path fill-rule="evenodd" clip-rule="evenodd" d="M4 13.5a.5.5 0 01.5.5v7a.5.5 0 01-1 0v-7a.5.5 0 01.5-.5zm0-11a.5.5 0 01.5.5v7a.5.5 0 01-1 0V3a.5.5 0 01.5-.5zm8 9a.5.5 0 01.5.5v9a.5.5 0 01-1 0v-9a.5.5 0 01.5-.5zm0-9a.5.5 0 01.5.5v5a.5.5 0 01-1 0V3a.5.5 0 01.5-.5zm8 13a.5.5 0 01.5.5v5a.5.5 0 01-1 0v-5a.5.5 0 01.5-.5zm0-13a.5.5 0 01.5.5v9a.5.5 0 01-1 0V3a.5.5 0 01.5-.5z" fill="#000"/><path fill-rule="evenodd" clip-rule="evenodd" d="M.5 14a.5.5 0 01.5-.5h6a.5.5 0 010 1H1a.5.5 0 01-.5-.5zm8-6a.5.5 0 01.5-.5h6a.5.5 0 010 1H9a.5.5 0 01-.5-.5zm8 8a.5.5 0 01.5-.5h6a.5.5 0 010 1h-6a.5.5 0 01-.5-.5z" fill="#000"/></svg>