<svg width="26" height="26" fill="none" xmlns="http://www.w3.org/2000/svg"><circle cx="13" cy="13" r="13" fill="#0D2951"/><path d="M12.998 10.666A2.34 2.34 0 0010.664 13a2.34 2.34 0 002.334 2.334A2.34 2.34 0 0015.332 13a2.34 2.34 0 00-2.334-2.334zM20 13c0-.967.009-1.925-.045-2.89-.055-1.12-.31-2.115-1.13-2.934-.821-.822-1.814-1.076-2.935-1.13-.966-.054-1.924-.045-2.89-.045-.966 0-1.924-.01-2.889.045-1.12.054-2.115.31-2.934 1.13-.822.82-1.076 1.814-1.13 2.934-.054.967-.045 1.925-.045 2.89 0 .965-.01 1.925.045 2.89.054 1.12.31 2.115 1.13 2.934.82.822 1.814 1.076 2.934 1.13.967.054 1.925.046 2.89.046.966 0 1.924.008 2.89-.046 1.12-.054 2.115-.31 2.934-1.13.821-.82 1.075-1.814 1.13-2.935.056-.964.045-1.922.045-2.889zm-7 3.592A3.587 3.587 0 019.406 13a3.587 3.587 0 013.591-3.592A3.587 3.587 0 0116.59 13a3.587 3.587 0 01-3.592 3.592zm3.738-6.492a.838.838 0 110-1.678.838.838 0 110 1.678z" fill="#fff"/></svg>