<svg width="32" height="32" fill="none" xmlns="http://www.w3.org/2000/svg"><path fill-rule="evenodd" clip-rule="evenodd" d="M25.99 7.81A6.2 6.2 0 0021.61 6a6.2 6.2 0 00-4.38 1.81l-.83.83-.83-.83A6.182 6.182 0 0011.19 6c-1.64 0-3.21.65-4.38 1.81A6.157 6.157 0 005 12.19c0 1.66.53 3.36 2.67 6.04 1.08 1.35 3.22 3.28 5.05 4.85.92.79 1.78 1.5 2.41 2.01.31.25.57.46.75.6.09.07.16.13.21.16l.03.02s.01 0 .01.01l.01.01.02.01.01-.01-.01.01c.02.02.06.01.08.03.05.02.1.05.16.05s.11-.03.16-.05c.03-.01.06-.01.08-.03l-.01-.01.01.01.02-.01.01-.01s.01 0 .01-.01l.03-.02c.05-.04.12-.09.21-.16.18-.14.43-.35.75-.6.63-.51 1.49-1.22 2.41-2.01 1.84-1.57 3.97-3.5 5.05-4.85 2.14-2.68 2.67-4.39 2.67-6.04 0-1.64-.65-3.21-1.81-4.38z" fill="#FFC72B"/></svg>