<svg width="40" height="40" fill="none" xmlns="http://www.w3.org/2000/svg"><path fill-rule="evenodd" clip-rule="evenodd" d="M23.311 8.09a7.74 7.74 0 0110.705 7.152 7.74 7.74 0 01-.59 2.963.5.5 0 01-.923-.382 6.74 6.74 0 00-10.996-7.348l-1.396 1.396a.5.5 0 01-.707 0l-1.395-1.396A6.741 6.741 0 006.5 15.243c0 1.772.53 3.693 3.117 6.927 1.282 1.603 3.879 3.953 6.187 5.925a161.388 161.388 0 003.916 3.236l2.975-2.976a.5.5 0 01.707.708l-3.29 3.29a.5.5 0 01-.664.04l.31-.393-.31.393-.023-.019-.067-.053a150.01 150.01 0 01-1.19-.957 161.96 161.96 0 01-3.013-2.508c-2.299-1.964-4.968-4.373-6.319-6.061C6.158 19.447 5.5 17.312 5.5 15.242a7.742 7.742 0 0113.216-5.474l1.042 1.042L20.8 9.768a7.74 7.74 0 012.51-1.678z" fill="#000"/><path fill-rule="evenodd" clip-rule="evenodd" d="M28.248 18.624a.5.5 0 01.5.5v8.557a.5.5 0 01-1 0v-8.557a.5.5 0 01.5-.5z" fill="#000"/><path fill-rule="evenodd" clip-rule="evenodd" d="M23.47 23.403a.5.5 0 01.5-.5h8.557a.5.5 0 010 1H23.97a.5.5 0 01-.5-.5z" fill="#000"/></svg>