<svg width="32" height="32" fill="none" xmlns="http://www.w3.org/2000/svg"><path fill-rule="evenodd" clip-rule="evenodd" d="M18.649 6.472a6.192 6.192 0 018.093 8.092.4.4 0 01-.74-.306 5.392 5.392 0 00-8.796-5.878l-1.117 1.117a.4.4 0 01-.565 0L14.407 8.38A5.393 5.393 0 005.2 12.194c0 1.418.424 2.955 2.494 5.542 1.026 1.282 3.103 3.162 4.95 4.74a129.264 129.264 0 003.132 2.589l2.38-2.38a.4.4 0 01.566.565l-2.633 2.633a.4.4 0 01-.53.031l.247-.314-.247.314-.019-.015-.054-.042a76.585 76.585 0 01-.952-.766 129.62 129.62 0 01-2.41-2.007c-1.839-1.57-3.974-3.497-5.055-4.848C4.927 15.558 4.4 13.849 4.4 12.194a6.193 6.193 0 0110.573-4.38l.833.834.834-.833a6.193 6.193 0 012.009-1.343z" fill="#000"/><path fill-rule="evenodd" clip-rule="evenodd" d="M22.599 14.9a.4.4 0 01.4.4v6.845a.4.4 0 01-.8 0v-6.846a.4.4 0 01.4-.4z" fill="#000"/><path fill-rule="evenodd" clip-rule="evenodd" d="M18.776 18.722a.4.4 0 01.4-.4h6.845a.4.4 0 110 .8h-6.845a.4.4 0 01-.4-.4z" fill="#000"/></svg>