<svg width="26" height="26" fill="none" xmlns="http://www.w3.org/2000/svg"><path fill-rule="evenodd" clip-rule="evenodd" d="M13 2.708C7.316 2.708 2.708 7.316 2.708 13S7.316 23.292 13 23.292 23.292 18.684 23.292 13 18.684 2.708 13 2.708zM1.625 13C1.625 6.718 6.718 1.625 13 1.625S24.375 6.718 24.375 13 19.282 24.375 13 24.375 1.625 19.282 1.625 13z" fill="gray"/><path fill-rule="evenodd" clip-rule="evenodd" d="M13 7.042a3.07 3.07 0 100 6.139 3.07 3.07 0 000-6.14zm-4.153 3.07a4.153 4.153 0 118.306 0 4.153 4.153 0 01-8.306 0zM13 16.327c-3.188 0-6.168.996-8.548 2.78l-.65-.866c2.573-1.93 5.783-2.997 9.198-2.997s6.625 1.067 9.198 2.997l-.65.867c-2.379-1.785-5.36-2.78-8.548-2.78z" fill="gray"/></svg>