<svg width="40" height="40" fill="none" xmlns="http://www.w3.org/2000/svg"><path d="M32.533 11.333c-.4.067-.8.267-1.133.467-.666.467-1.333.933-1.933 1.467C27.8 14.8 26.334 16.6 24.933 18.4l-2.4 3.4c-.333.4-.6.867-.933 1.267-.133.133-.2.333-.267.466-.133.2-.4.334-.6.534-1 .866-2.066 1.733-3.333 2.133-.866.267-2.133.2-2-1 .067-1.067.934-2.067 1.533-2.867 1.467-1.866 3.2-3.533 4.534-5.466.6-.934 1.133-1.934 1.067-3.067-.067-1.067-.534-1.933-1.334-2.6-1.733-1.467-4.333-1.6-6.466-1.133-1.934.4-3.734 1.2-5.334 2.333-1.666 1.2-3.333 2.8-3.933 4.867-.133.933-.133 2.066.333 3 .4.8 1.2 1.4 2.067 1.666 1.933.6 4.133-.066 5.733-1.133.734-.467 1.4-1.067 2-1.733.667-.8 1.333-1.734 1.333-2.8 0-1-.533-1.734-1.533-2-1-.267-2.133.066-2.933.666-.067.067-.133.067-.267.2l-.133.067c-.4.267-1 .733-.867.933.067-.066.134-.133.2-.133.133-.067.2-.133.2-.133.133-.067.2-.267.334-.334.2-.133.4-.266.6-.333.533-.267 1.133-.333 1.733-.333.933.066 1.6.666 1.667 1.666 0 1.067-.6 2-1.267 2.8-.8.934-1.6 1.534-2.667 1.934-1.733.6-4.066.733-5.2-1-1.266-1.867-.266-4.4 1.067-5.934.733-.866 1.667-1.666 2.667-2.2 1-.533 2-.933 3.066-1.2 2.067-.533 4.8-.8 6.534.734 1.866 1.6.733 4.133-.467 5.8-1.267 1.8-2.867 3.333-4.2 5.066-.667.934-1.4 2-1.267 3.2.134 1.134 1.267 1.534 2.267 1.334 1-.2 1.933-.8 2.8-1.4.6-.4 1.2-.867 1.733-1.334-.333.667-.466 1.467-.067 2.134.334.6 1.2.733 1.867.733 1.133-.067 2.2-.8 3.067-1.533-.134.266-.2.6-.334.866-1.333.734-2.666 1.4-3.933 2.134-.8.466-1.6.866-2.2 1.666-.466.6-.733 1.4-.266 2.134.4.6 1.066.866 1.8.866 1.133-.066 2.266-1.133 2.933-1.933 1.133-1.4 1.8-3.133 2.333-4.8 1.067-.533 2.134-1.133 3.2-1.733.067-.067.134-.134.267-.134.133-.066.266-.2.266-.2 0-.066-.066-.133-.066-.2 0 0-.134.067-.267.2 0 0 .067 0 .067-.066.066-.067.133-.134.2-.134-.067 0-.067.067-.134.067-.866.6-1.866 1.067-2.8 1.533-.133.067-.266.2-.4.2-.2.067-.133.067-.066-.133s.133-.4.267-.6c.266-.467.6-.8 1-1.133.333-.334.666-.667.933-1 .133-.134.266-.334.2-.534-.067-.266-.267-.333-.467-.266-.666.266-1.133.933-1.466 1.533-.2.333-.4.8-.667 1.133-.267.334-.6.6-.933.867-.467.333-1 .6-1.534.667-.466.066-1.067.133-1.267-.334-.466-.933.4-2.133.8-2.866l1-1.8c.2-.334.4-.534.667-.734.467-.4.867-.8 1.334-1.2C27.2 18.933 28 18.2 28.8 17.4l2.4-2.4c.4-.4.8-.8 1.134-1.267.333-.4.733-.866.866-1.4 0-.733-.2-1-.667-1zm-9.4 19.934c-.466.533-.933.8-1.733.733-.533 0-1.266-.267-1.533-.8-.334-.6 0-1.133.533-1.6.267-.267.667-.467 1.067-.733.333-.2.667-.4.867-.467.6-.333 1.266-.667 1.866-1 .334-.2.667-.333 1-.533a.506.506 0 01.267-.134c-.067.067-.067.134-.067.2a1.255 1.255 0 00-.133.534s0-.067.067-.067c0 0 0 .067-.067.067-.534 1.333-1.133 2.733-2.133 3.8zM32.068 12.8c-.2.333-.467.667-.733 1-1.067 1.333-2.334 2.6-3.534 3.8-.933.933-1.867 1.8-2.8 2.667.867-1.267 1.8-2.467 2.733-3.667 1-1.333 2.067-2.667 3.2-3.933.2-.267.467-.534.8-.734-.066.067.267-.066.267-.066.2 0 .267 0 .334.2.066.266-.134.533-.267.733zM31 12.133c-.133.134-.333.267-.466.4.133-.2.333-.333.466-.4 0-.066.067-.066 0 0z" fill="#0D2951"/><path d="M29.867 24.333c0 .067.066.134.066.2 0 0-.133.134-.266.2-.134 0-.2.067-.267.134-1.066.6-2.133 1.2-3.2 1.733-.533 1.667-1.2 3.4-2.333 4.8-.667.8-1.8 1.867-2.934 1.933-.733 0-1.4-.266-1.8-.866-.466-.734-.2-1.534.267-2.134.6-.8 1.4-1.2 2.2-1.666 1.267-.734 2.6-1.4 3.933-2.134.134-.266.2-.6.334-.866C25 26.4 23.933 27.133 22.8 27.2c-.666 0-1.533-.133-1.867-.733-.4-.667-.266-1.467.067-2.134-.533.467-1.133.934-1.733 1.334-.867.6-1.8 1.2-2.8 1.4-1 .2-2.133-.2-2.267-1.334-.133-1.2.6-2.266 1.267-3.2 1.333-1.733 2.933-3.266 4.2-5.066 1.2-1.667 2.333-4.2.466-5.8-1.733-1.534-4.466-1.267-6.533-.734a13.312 13.312 0 00-3.066 1.2c-1 .534-1.934 1.334-2.667 2.2C6.534 15.867 5.534 18.4 6.8 20.267c1.134 1.733 3.467 1.6 5.2 1 1.067-.4 1.867-1 2.667-1.934.667-.8 1.267-1.733 1.267-2.8-.067-1-.734-1.6-1.667-1.666-.6 0-1.2.066-1.733.333-.2.067-.4.2-.6.333-.134.067-.2.267-.334.334 0 0-.066.066-.2.133-.066 0-.133.067-.2.133-.133-.2.467-.666.867-.933l.133-.067c.134-.133.2-.133.267-.2.8-.6 1.933-.933 2.933-.666 1 .266 1.533 1 1.533 2 0 1.066-.666 2-1.333 2.8-.6.666-1.266 1.266-2 1.733-1.6 1.067-3.8 1.733-5.733 1.133C7 21.667 6.2 21.067 5.8 20.267c-.466-.934-.466-2.067-.333-3C6.067 15.2 7.734 13.6 9.4 12.4c1.6-1.133 3.4-1.933 5.333-2.333 2.134-.467 4.734-.334 6.467 1.133.8.667 1.267 1.533 1.334 2.6.066 1.133-.467 2.133-1.067 3.067-1.333 1.933-3.067 3.6-4.534 5.466-.6.8-1.466 1.8-1.533 2.867-.133 1.2 1.133 1.267 2 1 1.267-.4 2.334-1.267 3.334-2.133.2-.2.466-.334.6-.534.066-.133.133-.333.266-.466.333-.4.6-.867.933-1.267l2.4-3.4c1.4-1.8 2.867-3.6 4.534-5.133.6-.534 1.267-1 1.933-1.467.334-.2.733-.4 1.133-.467.467 0 .667.267.667 1-.133.534-.533 1-.867 1.4C32 14.2 31.6 14.6 31.2 15l-2.4 2.4c-.8.8-1.6 1.533-2.466 2.333-.467.4-.867.8-1.334 1.2-.267.2-.466.4-.666.734l-1 1.8c-.4.733-1.267 1.933-.8 2.866.2.467.8.4 1.266.334.534-.067 1.067-.334 1.534-.667.333-.267.666-.533.933-.867.267-.333.466-.8.666-1.133.334-.6.8-1.267 1.467-1.533.2-.067.4 0 .467.266.066.2-.067.4-.2.534-.267.333-.6.666-.934 1-.4.333-.733.666-1 1.133-.133.2-.2.4-.266.6-.067.2-.133.2.067.133.133 0 .266-.133.4-.2.933-.466 1.933-.933 2.8-1.533.066 0 .066-.067.133-.067zm0 0s-.134.067-.267.2c0 0 .067 0 .067-.066.066-.067.133-.134.2-.134zm-4.6 3.134c0-.2.067-.4.133-.534 0-.066 0-.133.067-.2-.067 0-.2.067-.267.134-.333.2-.666.333-1 .533-.6.333-1.267.667-1.866 1-.2.067-.534.267-.867.467-.4.266-.8.466-1.067.733-.533.467-.866 1-.533 1.6.267.533 1 .8 1.533.8.8.067 1.267-.2 1.734-.733 1-1.067 1.6-2.467 2.133-3.8zm0 0s0-.067.067-.067c0 0 0 .067-.067.067zM31 12.133c-.133.134-.333.267-.466.4.133-.2.333-.333.466-.4zm0 0c.067-.066 0-.066 0 0zm1.067.667c-.2.333-.467.667-.733 1-1.067 1.333-2.334 2.6-3.534 3.8-.933.933-1.867 1.8-2.8 2.667.867-1.267 1.8-2.467 2.733-3.667 1-1.333 2.067-2.667 3.2-3.933.2-.267.467-.534.8-.734-.066.067.267-.066.267-.066.2 0 .267 0 .334.2.066.266-.134.533-.267.733z" stroke="#0D2951" stroke-width=".2"/><path d="M30.805 40H9.195C4.16 40 0 35.906 0 30.805V9.195C0 4.16 4.161 0 9.195 0h21.61C35.906 0 40 4.161 40 9.195v21.61A9.166 9.166 0 0130.805 40zM9.195 1.41a7.79 7.79 0 00-7.786 7.785v21.61a7.79 7.79 0 007.786 7.786h21.61a7.79 7.79 0 007.786-7.786V9.195a7.79 7.79 0 00-7.786-7.786H9.195z" fill="#0D2951"/></svg>