<svg width="296" height="58" fill="none" xmlns="http://www.w3.org/2000/svg"><path d="M46.855 16.322c-.576.096-1.152.384-1.633.672-.96.673-1.92 1.345-2.784 2.113-2.4 2.208-4.513 4.8-6.529 7.393l-3.456 4.896c-.48.577-.864 1.249-1.345 1.825-.192.192-.288.48-.384.672-.192.288-.576.48-.864.768-1.44 1.248-2.976 2.496-4.8 3.072-1.248.385-3.073.289-2.88-1.44.095-1.536 1.343-2.976 2.207-4.128 2.113-2.689 4.61-5.09 6.53-7.873.864-1.345 1.632-2.785 1.536-4.417-.096-1.536-.768-2.785-1.92-3.745-2.497-2.112-6.242-2.304-9.314-1.632a20.417 20.417 0 00-7.681 3.36c-2.4 1.729-4.8 4.033-5.665 7.01-.192 1.344-.192 2.976.48 4.32.576 1.152 1.729 2.017 2.977 2.4 2.784.865 5.952-.096 8.257-1.632 1.056-.672 2.016-1.536 2.88-2.496.96-1.152 1.92-2.496 1.92-4.033 0-1.44-.768-2.496-2.208-2.88-1.44-.384-3.072.096-4.224.96-.096.096-.192.096-.384.288l-.193.096c-.576.384-1.44 1.056-1.248 1.344.096-.096.192-.192.288-.192.192-.096.288-.192.288-.192.192-.096.288-.384.48-.48.289-.192.577-.384.865-.48.768-.384 1.632-.48 2.496-.48 1.344.096 2.304.96 2.4 2.4 0 1.537-.864 2.88-1.824 4.033-1.152 1.344-2.304 2.208-3.84 2.784-2.497.864-5.857 1.057-7.49-1.44-1.824-2.688-.384-6.337 1.537-8.545 1.056-1.248 2.4-2.4 3.84-3.169 1.44-.768 2.88-1.344 4.417-1.728 2.976-.768 6.913-1.152 9.41 1.056 2.688 2.305 1.055 5.953-.673 8.354-1.824 2.592-4.129 4.8-6.049 7.297-.96 1.344-2.016 2.88-1.824 4.608.192 1.633 1.824 2.209 3.264 1.92 1.44-.287 2.785-1.151 4.033-2.016a24.57 24.57 0 002.496-1.92c-.48.96-.672 2.112-.096 3.072.48.865 1.729 1.057 2.689 1.057 1.632-.096 3.168-1.152 4.416-2.209-.192.384-.288.864-.48 1.248-1.92 1.057-3.84 2.017-5.665 3.073-1.152.672-2.304 1.248-3.168 2.4-.672.864-1.056 2.017-.384 3.073.576.864 1.536 1.248 2.592 1.248 1.633-.096 3.265-1.632 4.225-2.785 1.632-2.016 2.592-4.512 3.36-6.913 1.537-.768 3.073-1.632 4.61-2.496.095-.096.191-.192.383-.192.192-.096.384-.288.384-.288 0-.096-.096-.192-.096-.288 0 0-.192.096-.384.288 0 0 .096 0 .096-.096.096-.096.192-.192.288-.192-.096 0-.096.096-.192.096-1.248.864-2.688 1.536-4.032 2.208-.192.096-.384.288-.576.288-.288.096-.192.096-.096-.192.096-.288.191-.576.384-.864.384-.672.864-1.152 1.44-1.632.48-.48.96-.96 1.344-1.44.192-.192.384-.48.288-.768-.096-.384-.384-.48-.672-.384-.96.384-1.632 1.344-2.112 2.208-.288.48-.576 1.152-.96 1.632-.385.48-.865.864-1.345 1.248-.672.48-1.44.864-2.208.96-.672.097-1.536.193-1.824-.48-.672-1.344.576-3.072 1.152-4.128l1.44-2.592c.288-.48.576-.769.96-1.057.672-.576 1.248-1.152 1.92-1.728 1.249-1.152 2.4-2.208 3.553-3.36l3.456-3.457c.577-.576 1.153-1.152 1.633-1.824.48-.576 1.056-1.248 1.248-2.016 0-1.057-.288-1.44-.96-1.44zM33.317 45.031c-.672.768-1.344 1.152-2.497 1.056-.768 0-1.824-.384-2.208-1.153-.48-.864 0-1.632.768-2.304.384-.384.96-.672 1.537-1.056.48-.288.96-.576 1.248-.672.864-.48 1.824-.96 2.688-1.44.48-.288.96-.48 1.44-.768.096-.096.288-.192.384-.192-.096.096-.096.192-.096.288-.096.192-.192.48-.192.768 0 0 0-.096.096-.096 0 0 0 .096-.096.096-.768 1.92-1.632 3.936-3.072 5.473zm12.866-26.596c-.288.48-.672.96-1.056 1.44-1.537 1.92-3.361 3.744-5.09 5.473-1.343 1.344-2.688 2.592-4.032 3.84 1.248-1.824 2.593-3.552 3.937-5.28 1.44-1.92 2.976-3.841 4.608-5.665a4.092 4.092 0 011.153-1.056c-.096.095.384-.097.384-.097.288 0 .384 0 .48.288.096.385-.192.769-.384 1.057zm-1.537-.96c-.192.192-.48.384-.672.576a1.8 1.8 0 01.672-.576c.096-.097 0-.097 0 0z" fill="#0D2951"/><path d="M43.014 35.045c0 .096.096.192.096.288 0 0-.192.192-.384.288-.192 0-.288.096-.384.192-1.536.864-3.072 1.728-4.608 2.496-.769 2.4-1.729 4.897-3.361 6.913-.96 1.153-2.592 2.689-4.225 2.785-1.056 0-2.016-.384-2.592-1.248-.672-1.056-.288-2.209.384-3.073.864-1.152 2.016-1.728 3.168-2.4 1.825-1.056 3.745-2.016 5.665-3.072.192-.384.288-.865.48-1.249-1.248 1.056-2.784 2.113-4.416 2.209-.96 0-2.209-.192-2.689-1.056-.576-.96-.384-2.113.096-3.073a24.57 24.57 0 01-2.496 1.92c-1.248.864-2.592 1.729-4.033 2.017-1.44.288-3.072-.288-3.264-1.92-.192-1.729.864-3.265 1.824-4.61 1.92-2.496 4.225-4.704 6.05-7.296 1.727-2.4 3.36-6.05.671-8.354-2.496-2.208-6.433-1.824-9.41-1.056-1.535.384-2.976.96-4.416 1.728-1.44.769-2.784 1.92-3.84 3.169-1.92 2.208-3.36 5.857-1.537 8.545 1.633 2.497 4.993 2.305 7.49 1.44 1.536-.576 2.688-1.44 3.84-2.784.96-1.152 1.824-2.496 1.824-4.033-.096-1.44-1.056-2.304-2.4-2.4-.864 0-1.728.096-2.496.48-.288.096-.576.288-.864.48-.193.096-.289.384-.48.48 0 0-.097.096-.289.192-.096 0-.192.096-.288.192-.192-.288.672-.96 1.248-1.344l.193-.096c.192-.192.288-.192.384-.288 1.152-.864 2.784-1.344 4.224-.96 1.44.384 2.209 1.44 2.209 2.88 0 1.537-.96 2.88-1.92 4.033-.865.96-1.825 1.824-2.881 2.496-2.305 1.537-5.473 2.497-8.257 1.633-1.248-.384-2.4-1.249-2.977-2.4-.672-1.345-.672-2.977-.48-4.321.864-2.977 3.265-5.281 5.665-7.01a20.417 20.417 0 017.681-3.36c3.072-.672 6.817-.48 9.313 1.632 1.153.96 1.825 2.209 1.92 3.745.097 1.632-.671 3.072-1.535 4.416-1.92 2.785-4.417 5.185-6.53 7.874-.864 1.152-2.112 2.592-2.208 4.128-.192 1.729 1.633 1.825 2.88 1.44 1.825-.576 3.361-1.824 4.801-3.072.288-.288.672-.48.864-.768.096-.192.192-.48.384-.672.48-.576.865-1.248 1.345-1.824l3.456-4.897c2.017-2.593 4.129-5.185 6.53-7.393.863-.768 1.823-1.44 2.783-2.113.48-.288 1.057-.576 1.633-.672.672 0 .96.384.96 1.44-.192.769-.768 1.44-1.248 2.017-.48.672-1.056 1.248-1.633 1.824l-3.456 3.457c-1.152 1.152-2.304 2.208-3.553 3.36-.672.576-1.248 1.152-1.92 1.728a3.423 3.423 0 00-.96 1.056l-1.44 2.593c-.576 1.056-1.824 2.784-1.152 4.129.288.672 1.152.576 1.824.48.768-.096 1.536-.48 2.208-.96.48-.385.96-.769 1.345-1.249.384-.48.672-1.152.96-1.632.48-.864 1.152-1.824 2.112-2.208.288-.096.576 0 .672.384.096.288-.096.576-.288.768-.384.48-.864.96-1.344 1.44-.576.48-1.056.96-1.44 1.632-.193.288-.288.576-.385.864-.095.288-.191.288.097.192.192 0 .384-.192.576-.288 1.344-.672 2.784-1.344 4.032-2.208.096 0 .096-.096.192-.096zm0 0s-.192.096-.384.288c0 0 .096 0 .096-.096.096-.096.192-.192.288-.192zm-6.625 4.513c0-.288.096-.576.192-.768 0-.096 0-.192.096-.288-.096 0-.288.096-.384.192-.48.288-.96.48-1.44.768-.864.48-1.824.96-2.688 1.44-.288.096-.768.384-1.248.672-.577.384-1.153.672-1.537 1.056-.768.672-1.248 1.44-.768 2.304.384.769 1.44 1.153 2.209 1.153 1.152.096 1.824-.288 2.496-1.056 1.44-1.537 2.304-3.553 3.072-5.473zm0 0s0-.096.096-.096c0 0 0 .096-.096.096zm8.257-22.084c-.192.193-.48.385-.672.577a1.8 1.8 0 01.672-.576zm0 0c.096-.096 0-.096 0 0zm1.537.96c-.288.48-.672.96-1.056 1.44-1.537 1.921-3.361 3.745-5.09 5.474-1.343 1.344-2.688 2.592-4.032 3.84 1.248-1.824 2.593-3.552 3.937-5.28 1.44-1.92 2.976-3.841 4.608-5.665a4.092 4.092 0 011.153-1.056c-.096.095.384-.097.384-.097.288 0 .384 0 .48.288.096.385-.192.769-.384 1.057z" stroke="#0D2951" stroke-width=".2"/><path d="M44.366 57.608H13.242C5.992 57.608 0 51.712 0 44.366V13.242C0 5.992 5.993 0 13.242 0h31.124c7.346 0 13.242 5.993 13.242 13.242v31.124a13.2 13.2 0 01-13.242 13.242zM13.242 2.03C7.056 2.03 2.03 7.056 2.03 13.242v31.124c0 6.186 5.026 11.212 11.212 11.212h31.124c6.186 0 11.212-5.026 11.212-11.212V13.242c0-6.186-5.026-11.212-11.212-11.212H13.242z" fill="#0D2951"/><path d="M84.392 58h.638v-1.513h-.469v-4.555h-.637v4.555h-2.996v-4.555h-.638v5.123h4.102V58zm5.881-.945v-.568h-2.719V54.72h2.666v-.568h-2.666V52.5h2.72v-.568h-3.357v5.123h3.356zm6.363 0v-5.123h-.638v2.204h-2.995v-2.204h-.638v5.123h.638v-2.35h2.995v2.35h.638zm4.178 0V52.5h1.628v-.568h-3.886v.568h1.62v4.555h.638zm4.188 0V55.02h1.421c1.014 0 1.606-.707 1.606-1.544 0-.837-.576-1.544-1.606-1.544h-2.058v5.123h.637zm1.345-2.604h-1.345v-1.95h1.345c.606 0 1.021.399 1.021.975s-.415.975-1.021.975zm7.141-2.519h-.638v1.329c0 1.052.569 1.759 1.775 1.759.491 0 .898-.085 1.236-.177v2.212h.638v-5.123h-.638v2.343c-.33.107-.752.176-1.183.176-.775 0-1.19-.4-1.19-1.183v-1.336zm9.673 5.123l-2.066-5.123h-.792l-2.058 5.123h.73l.453-1.137h2.55l.453 1.137h.73zm-1.375-1.705h-2.174l1.091-2.758 1.083 2.758zm5.262 1.797c.907 0 1.521-.43 1.951-1.014l-.545-.3a1.71 1.71 0 01-1.406.746c-1.121 0-1.974-.868-1.974-2.082 0-1.22.853-2.081 1.974-2.081a1.73 1.73 0 011.406.745l.538-.3c-.408-.576-1.037-1.014-1.944-1.014-1.475 0-2.634 1.076-2.634 2.65 0 1.575 1.159 2.65 2.634 2.65zm6.174 0c1.513 0 2.543-1.136 2.543-2.65 0-1.513-1.03-2.65-2.543-2.65-1.521 0-2.542 1.137-2.542 2.65 0 1.514 1.021 2.65 2.542 2.65zm0-.568c-1.152 0-1.882-.891-1.882-2.082 0-1.198.73-2.081 1.882-2.081 1.145 0 1.882.883 1.882 2.081 0 1.191-.737 2.082-1.882 2.082zm6.949.476c.937 0 1.482-.56 1.482-1.382 0-.615-.453-1.176-.998-1.26.468-.1.898-.53.898-1.175 0-.768-.545-1.306-1.436-1.306h-2.281v5.123h2.335zm-.161-2.903h-1.537V52.5h1.537c.576 0 .883.369.883.83 0 .468-.307.822-.883.822zm.03 2.335h-1.567V54.72h1.567c.63 0 .953.415.953.883 0 .546-.354.884-.953.884zm6.037.66c1.513 0 2.542-1.136 2.542-2.65 0-1.513-1.029-2.65-2.542-2.65-1.521 0-2.543 1.137-2.543 2.65 0 1.514 1.022 2.65 2.543 2.65zm0-.568c-1.152 0-1.882-.891-1.882-2.082 0-1.198.73-2.081 1.882-2.081 1.144 0 1.882.883 1.882 2.081 0 1.191-.738 2.082-1.882 2.082zm5.251.476V52.5h2.719v-.568h-3.356v5.123h.637zm6.786.092c1.513 0 2.542-1.136 2.542-2.65 0-1.513-1.029-2.65-2.542-2.65-1.521 0-2.542 1.137-2.542 2.65 0 1.514 1.021 2.65 2.542 2.65zm0-.568c-1.152 0-1.882-.891-1.882-2.082 0-1.198.73-2.081 1.882-2.081 1.144 0 1.882.883 1.882 2.081 0 1.191-.738 2.082-1.882 2.082zm8.284.476l2.988-4.086v4.086h.637v-5.123h-.653l-2.949 4.002v-4.002h-.638v5.123h.615zm13.033.092c1.513 0 2.55-1.136 2.55-2.65 0-1.513-1.037-2.65-2.55-2.65-1.39 0-2.373.96-2.527 2.29h-.914v-2.205h-.637v5.123h.637v-2.35h.906c.085 1.413 1.091 2.442 2.535 2.442zm0-.568c-1.152 0-1.882-.891-1.882-2.082 0-1.198.73-2.081 1.882-2.081 1.145 0 1.89.883 1.89 2.081 0 1.191-.745 2.082-1.89 2.082zm6.953.476c.937 0 1.483-.56 1.483-1.382 0-.615-.454-1.176-.999-1.26.469-.1.899-.53.899-1.175 0-.768-.546-1.306-1.437-1.306h-2.281v5.123h2.335zm-.161-2.903h-1.536V52.5h1.536c.576 0 .883.369.883.83 0 .468-.307.822-.883.822zm.03 2.335h-1.566V54.72h1.566c.63 0 .953.415.953.883 0 .546-.353.884-.953.884zm7.059.568v-.568h-2.719V54.72h2.665v-.568h-2.665V52.5h2.719v-.568h-3.357v5.123h3.357zm1.738.092c.914 0 1.529-.345 1.805-2.596l.254-2.05h1.928v4.554h.637v-5.123h-3.134l-.315 2.573c-.215 1.736-.56 2.074-1.175 2.074v.568zm7.512-.092l2.988-4.086v4.086h.637v-5.123h-.653l-2.949 4.002v-4.002h-.638v5.123h.615zm6.536 0V55.02h1.421c1.014 0 1.606-.707 1.606-1.544 0-.837-.576-1.544-1.606-1.544h-2.058v5.123h.637zm1.345-2.604h-1.345v-1.95h1.345c.606 0 1.021.399 1.021.975s-.415.975-1.021.975zm7.872 2.604v-5.123h-.638v2.204h-2.995v-2.204h-.638v5.123h.638v-2.35h2.995v2.35h.638zm4.608.092c1.513 0 2.542-1.136 2.542-2.65 0-1.513-1.029-2.65-2.542-2.65-1.521 0-2.542 1.137-2.542 2.65 0 1.514 1.021 2.65 2.542 2.65zm0-.568c-1.152 0-1.882-.891-1.882-2.082 0-1.198.73-2.081 1.882-2.081 1.144 0 1.882.883 1.882 2.081 0 1.191-.738 2.082-1.882 2.082zm5.251.476V52.5h2.719v-.568h-3.356v5.123h.637zm6.786.092c1.513 0 2.543-1.136 2.543-2.65 0-1.513-1.03-2.65-2.543-2.65-1.521 0-2.542 1.137-2.542 2.65 0 1.514 1.021 2.65 2.542 2.65zm0-.568c-1.152 0-1.882-.891-1.882-2.082 0-1.198.73-2.081 1.882-2.081 1.145 0 1.882.883 1.882 2.081 0 1.191-.737 2.082-1.882 2.082zm8.284.476l2.988-4.086v4.086h.637v-5.123h-.653l-2.949 4.002v-4.002h-.638v5.123h.615zm8.326.092c.907 0 1.521-.43 1.951-1.014l-.545-.3a1.71 1.71 0 01-1.406.746c-1.121 0-1.974-.868-1.974-2.082 0-1.22.853-2.081 1.974-2.081a1.73 1.73 0 011.406.745l.538-.3c-.408-.576-1.037-1.014-1.944-1.014-1.475 0-2.634 1.076-2.634 2.65 0 1.575 1.159 2.65 2.634 2.65zm7.726-.092l-2.32-2.688 2.135-2.435h-.798l-2.266 2.65v-2.65h-.638v5.123h.638v-1.72l.514-.584 1.944 2.304h.791zm2.316.092c.73 0 1.068-.391 1.391-.998l2.235-4.217h-.73l-1.605 3.172-1.606-3.172h-.729l1.966 3.74-.092.177c-.284.53-.453.73-.86.73-.285 0-.515-.154-.699-.346l-.269.507c.184.23.568.407.998.407zm7.646 0c.907 0 1.521-.43 1.951-1.014l-.545-.3a1.71 1.71 0 01-1.406.746c-1.121 0-1.974-.868-1.974-2.082 0-1.22.853-2.081 1.974-2.081a1.73 1.73 0 011.406.745l.538-.3c-.407-.576-1.037-1.014-1.944-1.014-1.474 0-2.634 1.076-2.634 2.65 0 1.575 1.16 2.65 2.634 2.65zm6.267 0c.906 0 1.52-.43 1.951-1.014l-.546-.3a1.709 1.709 0 01-1.405.746c-1.122 0-1.975-.868-1.975-2.082 0-1.22.853-2.081 1.975-2.081.583 0 1.113.315 1.405.745l.538-.3c-.407-.576-1.037-1.014-1.943-1.014-1.475 0-2.635 1.076-2.635 2.65 0 1.575 1.16 2.65 2.635 2.65zm5.743-.092V52.5h1.629v-.568h-3.887v.568h1.621v4.555h.637zm5.886 0c.938 0 1.483-.56 1.483-1.382 0-.615-.453-1.176-.999-1.26.469-.1.899-.53.899-1.175 0-.768-.545-1.306-1.436-1.306h-2.282v5.123h2.335zm-.161-2.903h-1.536V52.5h1.536c.576 0 .883.369.883.83 0 .468-.307.822-.883.822zm.031 2.335h-1.567V54.72h1.567c.63 0 .952.415.952.883 0 .546-.353.884-.952.884zm8.087.568l-2.066-5.123h-.791l-2.059 5.123h.73l.453-1.137h2.55l.454 1.137h.729zm-1.375-1.705h-2.173l1.09-2.758 1.083 2.758z" fill="#000"/><path d="M99.804 16.322h-3.136v20.08h-12.88v-20.08h-3.136v22.91h18.08v4.167h3.136v-6.997h-2.064v-20.08zm10.995 17.315V16.322h-3.127v22.91h2.95l12.929-17.686V39.23h3.128V16.322h-3.12l-12.76 17.315zm36.096-15.033v-2.282h-3.135v2.282c-6.481.483-10.495 3.998-10.495 9.189 0 5.215 4.014 8.738 10.495 9.221v2.21h3.135v-2.21c6.498-.491 10.528-4.014 10.528-9.221 0-5.11-4.127-8.706-10.528-9.19zm7.296 9.189c0 3.498-2.79 5.916-7.296 6.36v-12.72c4.506.443 7.296 2.87 7.296 6.36zm-17.694 0c0-3.555 2.708-5.925 7.263-6.36v12.72c-4.555-.435-7.263-2.805-7.263-6.36zM164 39.231h15.123v-2.83h-11.987v-7.464h11.753v-2.829h-11.753v-6.956h11.987v-2.83H164v22.91zm31.043-22.909h-9.238v22.91h3.136v-8.973h6.102c4.264 0 7.238-2.861 7.238-6.964 0-4.111-2.974-6.973-7.238-6.973zm-.339 2.83c2.596 0 4.345 1.66 4.345 4.135 0 2.475-1.749 4.135-4.345 4.135h-5.763v-8.27h5.763zm22.748 6.142h-6.102v-6.142h11.849v-2.83h-14.985v22.91h9.238c4.264 0 7.238-2.862 7.238-6.965s-2.974-6.973-7.238-6.973zm-6.102 2.83h5.763c2.596 0 4.345 1.66 4.345 4.135 0 2.474-1.749 4.135-4.345 4.135h-5.763v-8.27zm22.901-.315c-.943 7.61-2.427 9.004-5.022 9.004h-.161v2.83h.161c4.345 0 6.924-1.847 8.117-11.584l1.096-8.9h8.198v20.08h3.136V16.322h-14.115l-1.41 11.487zm29.817-11.487l-9.206 22.91h3.563l1.999-5.015h11.027l1.999 5.014h3.563l-9.245-22.909h-3.7zm6.4 15.066h-9.109l4.571-11.551 4.538 11.551zm7.795-15.066v2.83h7.142v20.08h3.135v-20.08h7.182v-2.83h-17.459z" fill="#0D2951"/></svg>