<svg width="33" height="33" fill="none" xmlns="http://www.w3.org/2000/svg"><path fill-rule="evenodd" clip-rule="evenodd" d="M29.394 23.488c-.92-.766-1.839-1.379-2.758-1.991-1.838-1.38-3.677-1.38-5.055.765-.767 1.226-1.839 1.226-3.064.766-3.218-1.378-5.669-3.676-7.2-6.893-.614-1.686-.614-2.911.918-3.984.767-.612 1.533-1.225 1.533-2.298-.154-1.531-3.83-6.587-5.362-7.2a3.734 3.734 0 00-1.839 0c-3.37 1.226-4.902 3.983-3.523 7.354 4.136 9.958 11.336 17.005 21.294 21.14.613.307 1.226.307 1.532.46 2.298 0 4.902-2.144 5.668-4.289.766-1.992-.919-2.91-2.144-3.83z" fill="#0D2951"/></svg>