<svg width="32" height="32" fill="none" xmlns="http://www.w3.org/2000/svg"><path fill-rule="evenodd" clip-rule="evenodd" d="M15.586 5.398a1.2 1.2 0 01.828 0 1.94 1.94 0 01.32.165l8.267 4.793a.4.4 0 01.199.346v9.638c0 .118 0 .221-.017.322a1.2 1.2 0 01-.387.698 1.937 1.937 0 01-.264.184l-.02.013-8.3 5.182a.4.4 0 01-.424 0l-8.3-5.182-.02-.013a1.937 1.937 0 01-.264-.184 1.2 1.2 0 01-.387-.698 1.934 1.934 0 01-.017-.322v-9.638a.4.4 0 01.2-.346l8.266-4.793.022-.013c.106-.061.2-.115.298-.152zm.552.751a.4.4 0 00-.276 0 1.86 1.86 0 00-.195.106l-7.691 4.46L16 15.725l8.024-5.01-7.691-4.46a1.572 1.572 0 00-.195-.106zm8.262 5.274l-8 4.995v9.26l7.688-4.8c.132-.082.158-.1.177-.117a.4.4 0 00.13-.232 1.7 1.7 0 00.005-.213v-8.893zM15.6 25.68v-9.261l-8-4.995v8.893c0 .156.001.187.006.213a.4.4 0 00.129.232c.019.017.045.035.177.118l7.688 4.8z" fill="#8694A8"/></svg>