<svg width="40" height="40" fill="none" xmlns="http://www.w3.org/2000/svg"><path d="M15.925 19.97c-1.022 0-1.855-.323-2.5-.967-.643-.658-.965-1.484-.965-2.478 0-1.008.322-1.84.966-2.499.644-.672 1.477-1.008 2.499-1.008 1.036 0 1.876.336 2.52 1.008.658.658.987 1.491.987 2.5 0 .993-.33 1.82-.987 2.477-.644.644-1.484.966-2.52.966zm.042 7.265H14.58l8.946-14.007h1.407l-8.967 14.007zm9.996-.714c-.644.644-1.477.966-2.5.966-1.021 0-1.854-.322-2.498-.966-.644-.658-.966-1.484-.966-2.478 0-1.008.322-1.84.966-2.499.644-.672 1.477-1.008 2.499-1.008s1.855.336 2.499 1.008c.658.672.987 1.505.987 2.5 0 .993-.33 1.82-.987 2.477zm-10.038-7.938c.546 0 .994-.189 1.344-.567.35-.392.525-.889.525-1.49 0-.63-.175-1.135-.525-1.513-.35-.392-.798-.588-1.344-.588s-.994.196-1.344.588c-.336.378-.504.882-.504 1.512 0 .602.175 1.1.525 1.491.35.378.79.567 1.323.567zm6.195 6.951c.35.378.798.567 1.344.567s.994-.189 1.344-.567c.35-.392.525-.889.525-1.49 0-.63-.175-1.135-.525-1.513-.35-.392-.798-.588-1.344-.588s-.994.196-1.344.588c-.336.378-.504.882-.504 1.512 0 .602.168 1.1.504 1.491z" fill="#0D2951"/><rect x="2.5" y="2.5" width="35" height="35" rx="2.676" stroke="#0D2951"/></svg>