<svg width="24" height="24" fill="none" xmlns="http://www.w3.org/2000/svg"><path fill-rule="evenodd" clip-rule="evenodd" d="M4.508 1.615c.48-.12.963-.12 1.443 0l.033.008.031.013c.36.144.763.499 1.13.88.386.4.796.9 1.175 1.412.378.513.73 1.05.998 1.528.133.24.249.47.336.68.084.204.154.417.173.614l.003.025V6.8c0 .943-.676 1.483-1.14 1.852l-.048.038-.012.01-.014.01c-.42.294-.572.564-.619.827-.05.288.01.654.194 1.17.946 1.972 2.446 3.378 4.425 4.229.36.134.63.173.835.135.179-.033.367-.135.555-.436l.003-.005c.505-.786 1.148-1.256 1.903-1.34.732-.08 1.454.215 2.106.702.591.393 1.205.803 1.822 1.315.064.049.136.1.212.155.336.242.76.547 1.054.912.195.241.356.532.42.882s.023.723-.127 1.118c-.29.806-.907 1.577-1.637 2.146-.73.568-1.636.98-2.532.98h-.118l-.106-.053c.003.002-.015-.007-.077-.022-.04-.01-.08-.017-.127-.027l-.102-.022a2.878 2.878 0 01-.677-.22C9.412 18.405 4.618 13.713 1.868 7.091l-.001-.003c-.495-1.209-.485-2.362.003-3.338.484-.967 1.402-1.69 2.589-2.12l.024-.01.025-.006zm.267.964c-.999.369-1.672.943-2.01 1.62-.338.674-.378 1.52.027 2.51 2.648 6.374 7.248 10.879 13.63 13.53l.016.006.015.008c.142.07.292.11.457.146l.073.015.179.039c.046.01.1.025.159.045.581-.027 1.238-.31 1.827-.768.617-.48 1.1-1.107 1.31-1.698l.005-.012c.097-.252.106-.44.08-.585a.964.964 0 00-.215-.434c-.201-.249-.477-.449-.8-.682a21.72 21.72 0 01-.298-.219l-.01-.008-.01-.008c-.577-.48-1.155-.866-1.758-1.268l-.011-.008-.011-.008c-.545-.409-1.02-.559-1.408-.516-.37.042-.776.272-1.17.884-.312.498-.723.794-1.219.886-.468.087-.945-.023-1.379-.186l-.01-.004-.011-.004c-2.209-.947-3.901-2.532-4.955-4.745l-.01-.022-.008-.022c-.208-.573-.346-1.15-.248-1.708.103-.582.446-1.06 1.017-1.463.517-.414.788-.668.8-1.072a1.531 1.531 0 00-.1-.31 5.626 5.626 0 00-.284-.574 13.96 13.96 0 00-.93-1.422c-.36-.487-.742-.95-1.09-1.313-.346-.358-.608-.563-.754-.633a1.933 1.933 0 00-.896.003zm7.808-.634a.5.5 0 01.552-.442 9.5 9.5 0 018.392 8.381.5.5 0 01-.994.112 8.5 8.5 0 00-7.509-7.5.5.5 0 01-.441-.551zm.006 3.96a.5.5 0 01.586-.396 5.5 5.5 0 014.345 4.345.5.5 0 11-.981.192 4.5 4.5 0 00-3.555-3.555.5.5 0 01-.395-.587z" fill="#0D2951"/></svg>