<svg width="28" height="28" fill="none" xmlns="http://www.w3.org/2000/svg"><path fill-rule="evenodd" clip-rule="evenodd" d="M19.203 7.35l-2.16-3.231a1.38 1.38 0 00-1.17-.619h-3.747c-.487 0-.914.233-1.17.619l-.003.005L8.797 7.35H3.733c-.767 0-1.4.633-1.4 1.4v14.117c0 .702.61 1.4 1.4 1.4h20.534c.767 0 1.4-.633 1.4-1.4V8.75c0-.767-.633-1.4-1.4-1.4h-5.064zM8.173 6.183h-4.44A2.574 2.574 0 001.167 8.75v14.117c0 1.283 1.07 2.566 2.566 2.566h20.534a2.574 2.574 0 002.566-2.566V8.75a2.574 2.574 0 00-2.566-2.567h-4.44l-1.81-2.707a2.548 2.548 0 00-2.143-1.143h-3.748c-.872 0-1.668.424-2.143 1.143l-1.81 2.707z" fill="gray"/><path fill-rule="evenodd" clip-rule="evenodd" d="M14 19.833a4.667 4.667 0 100-9.333 4.667 4.667 0 000 9.333zM14 21a5.833 5.833 0 100-11.667A5.833 5.833 0 0014 21z" fill="gray"/></svg>