<svg width="40" height="40" fill="none" xmlns="http://www.w3.org/2000/svg"><path d="M16.088 26.82v-2.569h-1.644v-1.228h1.644v-1.68h-1.644v-1.436h1.644v-6.574h3.55c1.65 0 2.872.334 3.665 1.001.806.668 1.21 1.638 1.21 2.91 0 1.284-.435 2.291-1.304 3.021-.869.718-2.147 1.077-3.835 1.077h-1.586v1.681h3.116v1.228h-3.116v2.569h-1.7zm3.04-6.913c1.147 0 2.035-.19 2.664-.567.642-.378.964-1.058.964-2.04 0-.856-.265-1.492-.794-1.908-.529-.415-1.354-.623-2.474-.623h-1.7v5.138h1.34z" fill="#000"/><rect x=".5" y=".5" width="39" height="39" rx="1.5" stroke="#000"/></svg>