<svg width="21" height="21" fill="none" xmlns="http://www.w3.org/2000/svg"><path fill-rule="evenodd" clip-rule="evenodd" d="M18.705 14.947c-.585-.487-1.17-.877-1.755-1.267-1.17-.878-2.34-.878-3.217.487-.488.78-1.17.78-1.95.488-2.047-.878-3.607-2.34-4.582-4.387-.39-1.073-.39-1.853.585-2.535.487-.39.975-.78.975-1.463-.098-.974-2.437-4.192-3.412-4.582a2.376 2.376 0 00-1.17 0c-2.145.78-3.12 2.535-2.242 4.68 2.632 6.337 7.214 10.821 13.55 13.453.39.195.78.195.975.293 1.463 0 3.12-1.365 3.608-2.73.487-1.267-.585-1.852-1.365-2.437z" fill="#C4C4C4"/></svg>