<svg width="21" height="21" fill="none" xmlns="http://www.w3.org/2000/svg"><path d="M10.5 20.192c5.353 0 9.692-4.339 9.692-9.692S15.852.808 10.5.808C5.147.808.808 5.148.808 10.5a9.692 9.692 0 009.692 9.692z" fill="#C4C4C4"/><path d="M8.255 15.601c-.306 0-.306-.204-.408-.51l-1.122-3.673 6.938-4.387.816.204-.714 1.837-5.51 6.53z" fill="#D4D4D4"/><path d="M8.255 15.601c.306 0 .408-.102.613-.306.306-.204 3.57-3.469 3.57-3.469l-2.04-.51-1.837 1.225-.306 3.06z" fill="#A1A1A1"/><path d="M8.46 12.54l4.794 3.571c.51.306.919.102 1.123-.51l1.938-9.182c.204-.816-.306-1.122-.816-.918L4.072 9.888c-.816.306-.816.816-.102.918l2.959.918 6.734-4.285c.306-.204.612-.102.408.102l-5.612 5z" fill="#fff"/></svg>