<svg width="21" height="21" fill="none" xmlns="http://www.w3.org/2000/svg"><path d="M10.5 20.192c-1.734 0-3.469-.51-4.897-1.326l-.306-.204-3.673.918 1.02-3.57-.204-.409C1.318 14.071.808 12.336.808 10.5.808 5.195 5.195.808 10.5.808c2.55 0 5 1.02 6.836 2.856 1.836 1.837 2.856 4.285 2.856 6.836 0 5.305-4.387 9.692-9.692 9.692z" fill="#C4C4C4"/><path d="M15.805 12.949c-.306-.102-1.734-.817-2.04-.919-.306-.102-.51-.102-.612.102a10.99 10.99 0 01-.919 1.123c-.204.204-.306.204-.612.102s-1.224-.408-2.346-1.429c-.817-.816-1.429-1.734-1.633-2.04-.204-.306 0-.408.102-.612.204-.102.306-.306.51-.51.102-.204.204-.306.306-.51.102-.205 0-.409 0-.51-.102-.103-.714-1.531-1.02-2.143-.204-.51-.408-.51-.612-.51h-.51c-.204 0-.51.102-.816.408-.306.306-1.02 1.02-1.02 2.448 0 1.429 1.02 2.857 1.224 3.061.102.204 2.04 3.163 4.999 4.387.714.306 1.224.51 1.632.612.715.204 1.327.204 1.837.102s1.734-.714 1.938-1.428c.204-.714.204-1.224.204-1.428 0-.204-.306-.204-.612-.306z" fill="#fff"/></svg>