<svg width="33" height="33" fill="none" xmlns="http://www.w3.org/2000/svg"><path d="M16.5 31.73c8.412 0 15.231-6.818 15.231-15.23S24.912 1.27 16.501 1.27C8.088 1.27 1.27 8.087 1.27 16.5S8.089 31.73 16.5 31.73z" fill="#0D2951"/><path d="M12.973 24.516c-.48 0-.48-.32-.641-.801l-1.764-5.772 10.902-6.894 1.283.32-1.122 2.887-8.658 10.26z" fill="#AAB4C2"/><path d="M12.974 24.516c.48 0 .64-.16.962-.48.48-.321 5.61-5.452 5.61-5.452l-3.206-.801-2.885 1.924-.481 4.81z" fill="#62748E"/><path d="M13.294 19.707l7.535 5.611c.802.48 1.443.16 1.764-.802l3.046-14.429c.32-1.282-.481-1.763-1.283-1.443L6.4 15.538c-1.283.481-1.283 1.283-.16 1.443l4.649 1.443L21.47 11.69c.481-.32.962-.16.642.16l-8.818 7.857z" fill="#fff"/></svg>