<svg width="26" height="26" fill="none" xmlns="http://www.w3.org/2000/svg"><path d="M13 0C5.821 0 0 5.821 0 13s5.821 13 13 13 13-5.821 13-13S20.179 0 13 0zm6.247 9.8c.01.136.01.278.01.417 0 4.26-3.245 9.167-9.173 9.167a9.14 9.14 0 01-4.95-1.445c.26.029.51.04.777.04 1.509 0 2.896-.51 4.002-1.375A3.224 3.224 0 016.9 14.37c.497.072.944.072 1.454-.058a3.22 3.22 0 01-2.58-3.163v-.041c.427.24.93.389 1.454.41A3.225 3.225 0 016.23 7.21a9.149 9.149 0 006.645 3.369c-.455-2.19 1.181-3.964 3.149-3.964.928 0 1.764.389 2.353 1.016a6.367 6.367 0 002.046-.775 3.208 3.208 0 01-1.416 1.773c.65-.07 1.276-.25 1.857-.502a6.753 6.753 0 01-1.617 1.671z" fill="#0D2951"/></svg>