<svg width="26" height="26" fill="none" xmlns="http://www.w3.org/2000/svg"><circle cx="13" cy="13" r="13" fill="#0D2951"/><path d="M11.192 8.388c.57-.007 1.129.061 1.401.07 1.01.03 1.188.579 1.175 1.03-.019.66-.415 3.452.318 3.724 1.069-.613 1.785-2.517 2.307-3.724.264-.61.222-.641.83-.642l2.417-.004c.581 0 .559-.023.745.232.433.594-1.368 3.061-1.95 3.743-1.074 1.26-.447 1.747-.274 1.92.801.802 1.575 1.634 2.057 2.4.382.61.224 1.178-.262 1.2l-2.591.114c-.86.038-2.197-1.616-2.41-1.976-.172-.298-1.004-.67-1.082.09l-.11 1.06c-.08.758-.6.74-1.012.759-2.85.131-3.82-1.033-5.256-2.752-1.051-1.596-2.055-3.202-2.887-5.125-.249-.576-.38-.998-.414-1.446.418-.351 1.887-.2 2.873-.223.27-.006.452.16.594.49.556 1.289 1.162 2.555 1.964 3.674.349.345.658.472.812-.23.09-.008.082-1.17.087-2.047.004-.602-.062-1.324-1.012-1.657.192-.541.946-.672 1.68-.68z" fill="#fff"/></svg>