<svg width="33" height="33" fill="none" xmlns="http://www.w3.org/2000/svg"><path d="M16.5 31.73c-2.726 0-5.451-.8-7.696-2.083l-.48-.321-5.772 1.443 1.603-5.611-.32-.642c-1.764-2.405-2.566-5.13-2.566-8.016 0-8.337 6.894-15.23 15.23-15.23 4.009 0 7.857 1.603 10.742 4.488 2.886 2.886 4.49 6.734 4.49 10.742 0 8.337-6.894 15.23-15.231 15.23z" fill="#0D2951"/><path d="M24.837 20.348c-.481-.16-2.726-1.283-3.207-1.443-.48-.16-.801-.16-.962.16-.32.481-1.122 1.443-1.442 1.764-.321.32-.482.32-.962.16-.482-.16-1.924-.641-3.688-2.244-1.283-1.283-2.245-2.726-2.565-3.207-.32-.48 0-.641.16-.962.32-.16.481-.48.802-.801.16-.321.32-.481.48-.802.161-.32 0-.641 0-.802-.16-.16-1.121-2.405-1.602-3.366-.321-.802-.642-.802-.962-.802h-.802c-.32 0-.802.16-1.283.641-.48.481-1.603 1.604-1.603 3.848 0 2.244 1.603 4.49 1.924 4.81.16.32 3.207 4.97 7.856 6.894 1.122.48 1.924.801 2.565.962 1.122.32 2.084.32 2.886.16s2.725-1.122 3.046-2.245c.32-1.122.32-1.924.32-2.244 0-.32-.48-.32-.961-.481z" fill="#fff"/></svg>