<svg width="26" height="26" fill="none" xmlns="http://www.w3.org/2000/svg"><path d="M13 25c-2.147 0-4.295-.632-6.063-1.642l-.38-.253-4.546 1.137 1.263-4.42-.253-.506C1.631 17.42 1 15.274 1 13 1 6.432 6.432 1 13 1c3.158 0 6.19 1.263 8.463 3.537C23.737 6.81 25 9.842 25 13c0 6.568-5.432 12-12 12z" stroke="#FFC72B"/><path d="M19.568 16.032c-.379-.127-2.147-1.011-2.526-1.137-.379-.127-.632-.127-.758.126a13.424 13.424 0 01-1.137 1.39c-.252.252-.379.252-.758.126-.378-.127-1.515-.505-2.905-1.769-1.01-1.01-1.768-2.147-2.02-2.526-.253-.379 0-.505.125-.758.253-.126.38-.379.632-.632.126-.252.253-.378.379-.631s0-.505 0-.632c-.126-.126-.884-1.894-1.263-2.652-.253-.632-.505-.632-.758-.632h-.632c-.252 0-.631.126-1.01.505-.38.38-1.263 1.264-1.263 3.032s1.263 3.537 1.515 3.79c.127.252 2.527 3.915 6.19 5.431.884.379 1.516.632 2.021.758.884.253 1.642.253 2.274.126.631-.126 2.147-.884 2.4-1.768.252-.884.252-1.516.252-1.769 0-.252-.379-.252-.758-.378z" stroke="#FFC72B"/></svg>